<?xml version="1.0" standalone="no"?>
<!DOCTYPE svg PUBLIC "-//W3C//DTD SVG 1.1//EN" "http://www.w3.org/Graphics/SVG/1.1/DTD/svg11.dtd" >
<svg xmlns="http://www.w3.org/2000/svg">
<metadata>Generated by IcoMoon</metadata>
<defs>
<font id="icomoon" horiz-adv-x="1024">
<font-face units-per-em="1024" ascent="960" descent="-64" />
<missing-glyph horiz-adv-x="1024" />
<glyph unicode="&#x20;" horiz-adv-x="512" d="" />
<glyph unicode="&#xe900;" glyph-name="clock" d="M512-64c-136.76 0-265.334 53.258-362.040 149.96-96.702 96.706-149.96 225.28-149.96 362.040s53.258 265.334 149.96 362.040c96.706 96.702 225.28 149.96 362.040 149.96s265.334-53.258 362.040-149.96c96.702-96.706 149.96-225.28 149.96-362.040s-53.258-265.334-149.96-362.040c-96.706-96.702-225.28-149.96-362.040-149.96zM512 900c-120.734 0-234.24-47.016-319.612-132.388s-132.388-198.878-132.388-319.612 47.016-234.24 132.388-319.612 198.878-132.388 319.612-132.388 234.24 47.016 319.612 132.388 132.388 198.878 132.388 319.612-47.016 234.24-132.388 319.612-198.878 132.388-319.612 132.388zM482 839.928h60v-80.064h-60zM711.205 689.682l56.605 56.605 42.42-42.42-56.605-56.605zM823.864 478h80.064v-60h-80.064zM711.152 206.265l42.42 42.42 56.605-56.605-42.42-42.42zM482 136.136h60v-80.064h-60zM213.549 192.133l56.605 56.605 42.42-42.42-56.605-56.605zM120.072 478h80.064v-60h-80.064zM213.603 703.921l42.42 42.42 56.605-56.605-42.42-42.42zM723.784 418h-241.784v241.784h60v-181.784h181.784z" />
<glyph unicode="&#xe901;" glyph-name="quote" d="M0 374.857h219.428l-146.287-292.57h219.428l146.287 292.57v438.857h-438.857zM585.143 813.713v-438.857h219.428l-146.287-292.57h219.428l146.287 292.57v438.857z" />
<glyph unicode="&#xe902;" glyph-name="straight-quotes" d="M0 832v-768l384 384v384zM640 832v-768l384 384v384z" />
<glyph unicode="&#xe903;" glyph-name="arrow-pointing-to-right" d="M1010.055 481.668l-304.726 304.726c-18.592 18.592-48.745 18.592-67.337 0-18.596-18.596-18.596-48.741 0-67.337l223.444-223.444h-813.823c-26.294 0-47.613-21.319-47.613-47.613 0-26.29 21.319-47.613 47.613-47.613h813.823l-223.436-223.444c-18.596-18.596-18.596-48.741 0-67.337 9.294-9.29 21.483-13.945 33.668-13.945s24.37 4.655 33.668 13.945l304.718 304.726c18.596 18.596 18.596 48.741 0 67.337z" />
<glyph unicode="&#xe904;" glyph-name="send" d="M1015.214 951.21c-8.486 8.488-21.218 11.098-32.354 6.642l-964-385.595c-11.030-4.412-18.416-14.916-18.84-26.79-0.422-11.872 6.202-22.874 16.89-28.058l380.135-184.362 184.364-380.135c5.028-10.368 15.528-16.91 26.986-16.91 0.356 0 0.714 0.006 1.072 0.020 11.87 0.422 22.378 7.808 26.788 18.838l385.599 963.994c4.456 11.144 1.846 23.87-6.64 32.356zM104.188 541.765l765.251 306.097-456.057-456.053-309.193 149.956zM605.765 40.188l-149.958 309.197 456.059 456.053-306.101-765.251z" />
<glyph unicode="&#xe905;" glyph-name="customer-support" d="M952.096 513.552c-3.92 111.696-49.152 216.144-128.576 295.568-83.248 83.264-193.888 129.104-311.52 129.104-237.584 0-431.712-189.104-440.080-424.672-36.256-16.112-61.632-52.4-61.632-94.576v-116.192c0-57.056 46.416-103.488 103.488-103.488 36.928 0 66.96 30.032 66.96 66.96v189.264c0 34.672-26.592 62.944-60.4 66.304 12.48 205.232 183.328 368.4 391.664 368.4 104.832 0 203.408-40.864 277.6-115.056 68.128-68.128 108-156.928 114-253.36-33.776-3.392-60.32-31.648-60.32-66.288v-189.248c0-34.96 27.008-63.408 61.216-66.368v-47.824c0-53.856-43.824-97.664-97.68-97.664h-72.336c-3.552 10.144-9.12 19.52-16.928 27.296-13.68 13.744-31.92 21.312-51.344 21.312h-74.56c-10.704 0-20.976-2.272-30.384-6.656-25.664-11.792-42.24-37.68-42.24-65.952 0-19.424 7.568-37.664 21.28-51.312 13.712-13.744 31.952-21.312 51.344-21.312h74.56c30.912 0 58.16 19.984 68.32 48.624h72.288c80.336 0 145.68 65.344 145.68 145.664v56.368c36.032 16.208 61.216 52.368 61.216 94.368v116.192c0 42.144-25.376 78.432-61.616 94.544zM132.72 455.52v-189.248c0-10.448-8.496-18.96-18.96-18.96-30.592 0-55.488 24.896-55.488 55.488v116.192c0 30.608 24.896 55.488 55.488 55.488 10.464 0 18.96-8.512 18.96-18.96zM690.288 25.264c-2.384-11.296-12.528-19.504-24.096-19.504h-74.56c-6.56 0-12.72 2.56-17.424 7.264-4.64 4.624-7.2 10.8-7.2 17.36 0 9.584 5.616 18.336 14.416 22.384 3.136 1.472 6.576 2.224 10.208 2.224h74.56c6.56 0 12.72-2.544 17.408-7.248 4.64-4.624 7.2-10.8 7.2-17.36 0.016-1.76-0.176-3.52-0.512-5.12zM965.712 302.8c0-30.592-24.896-55.488-55.488-55.488-10.448 0-18.96 8.496-18.96 18.96v189.248c0 10.448 8.496 18.96 18.96 18.96 30.592 0 55.488-24.896 55.488-55.488zM667.408 294.528c56.080 0 101.696 45.632 101.696 101.696v207.216c0 27.104-10.592 52.64-29.824 71.872s-44.752 29.824-71.872 29.824h-310.816c-56.080 0-101.696-45.616-101.696-101.696v-207.216c0-56.080 45.616-101.696 101.696-101.696h1.904v-53.696c0-20.48 12.208-38.656 31.088-46.32 6.096-2.448 12.432-3.664 18.704-3.664 13.072 0 25.808 5.184 35.136 14.832l89.328 88.848zM505.952 335.552l-96.672-96.144c-0.432-0.448-0.752-0.784-1.664-0.384-1.104 0.448-1.104 1.168-1.104 1.808v77.696c0 13.248-10.736 24-24 24h-25.904c-29.616 0-53.696 24.096-53.696 53.696v207.216c0 29.616 24.080 53.696 53.696 53.696h310.816c14.304 0 27.76-5.6 37.936-15.76 10.176-10.176 15.76-23.648 15.76-37.936v-207.216c0-29.616-24.096-53.696-53.696-53.696h-144.544c-6.352 0-12.432-2.512-16.928-6.976zM395.408 531.408c-19.52 0-35.408-15.904-35.408-35.408s15.904-35.408 35.408-35.408c19.536 0 35.44 15.904 35.44 35.408s-15.888 35.408-35.44 35.408zM511.984 531.408c-19.52 0-35.408-15.904-35.408-35.408s15.904-35.408 35.408-35.408c19.552 0 35.44 15.904 35.44 35.408s-15.888 35.408-35.44 35.408zM628.56 531.408c-19.52 0-35.408-15.904-35.408-35.408s15.904-35.408 35.408-35.408c19.536 0 35.44 15.904 35.44 35.408s-15.904 35.408-35.44 35.408z" />
<glyph unicode="&#xe906;" glyph-name="support" d="M510.214 829.88c11.124 0 20.142 9.018 20.142 20.142v89.836c0 11.124-9.018 20.142-20.142 20.142s-20.142-9.018-20.142-20.142v-89.836c0.002-11.124 9.020-20.142 20.142-20.142zM1002.56 268.030l-35.582 35.482c-12.658 12.642-29.528 19.606-47.504 19.606-11.494 0-22.528-2.86-32.306-8.218l-67.052 66.972 3.266 3.262c27.202 27.256 27.192 71.546-0.002 98.71-9.718 9.736-21.844 16.228-35.062 18.96 1.82 6.282 2.778 12.862 2.778 19.596 0 18.71-7.268 36.254-20.424 49.356-9.72 9.736-21.844 16.228-35.062 18.96 1.82 6.282 2.778 12.86 2.778 19.596 0 18.712-7.268 36.254-20.446 49.376-9.952 9.94-22.186 16.232-35.032 18.91 6.872 23.694 1 50.352-17.64 69.024-15.516 15.45-36.57 22.090-56.86 19.938l-132.87 25.15c-20.264 3.844-45.57 6.386-61.544-8.184-1.008-0.92-2.036-1.978-3.048-3.156-24.768 9.028-53.656 3.652-73.49-16.16-13.158-13.142-20.406-30.678-20.406-49.378 0-6.736 0.954-13.314 2.772-19.598-13.204-2.73-25.314-9.214-35-18.918-13.184-13.13-20.454-30.646-20.468-49.324-0.006-6.752 0.952-13.352 2.78-19.652-13.21-2.724-25.328-9.196-35.044-18.9-13.184-13.17-20.444-30.716-20.444-49.406 0-14.316 4.274-27.954 12.194-39.474-10-3.39-19.16-9.032-26.83-16.694-27.22-27.186-27.23-71.478 0.018-98.774l3.254-3.24-67.060-66.938c-24.922 11.734-55.628 7.338-76.194-13.202l-35.604-35.504c-12.664-12.648-19.636-29.52-19.638-47.506 0-17.988 6.974-34.862 19.638-47.512l44.434-44.38c7.87-7.862 20.624-7.854 28.484 0.016 7.862 7.87 7.854 20.624-0.016 28.484l-44.434 44.38c-5.044 5.038-7.822 11.79-7.822 19.010 0 7.218 2.778 13.968 7.81 18.994l35.606 35.506c8.896 8.886 22.512 10.21 32.852 4.028 0.728-1.094 1.57-2.134 2.534-3.1 1.726-1.73 3.696-3.056 5.788-4.026l204.186-203.886c0.97-2.114 2.302-4.104 4.040-5.844 1.692-1.694 3.622-3.004 5.67-3.968 4.318-4.882 6.704-11.118 6.704-17.77 0-7.22-2.778-13.97-7.822-19.008l-35.57-35.528c-10.51-10.464-27.606-10.462-38.084-0.032l-44.434 44.438c-7.866 7.866-20.618 7.866-28.484 0s-7.866-20.618 0-28.484l44.466-44.47c13.088-13.034 30.276-19.548 47.472-19.548 17.2 0 34.408 6.524 47.512 19.57l35.592 35.55c12.664 12.65 19.638 29.522 19.638 47.512 0 12.838-3.57 25.098-10.208 35.67l75.472 75.38c0.080 0.082 0.16 0.164 0.242 0.246 8.642 8.934 32.708 7.262 55.982 5.646 16.536-1.15 34.972-2.428 52.984-0.352l82.648-82.55c-5.354-9.762-8.212-20.782-8.212-32.258 0-17.97 6.974-34.832 19.638-47.482l35.594-35.55c12.656-12.642 29.526-19.606 47.502-19.606 17.974 0 34.844 6.962 47.502 19.606l215.882 215.62c12.664 12.648 19.638 29.52 19.638 47.508-0.002 17.986-6.976 34.858-19.652 47.518zM468.040 753.13l87.374-16.538-52.298-52.278c-8.090 3.888-19.178 11.14-31.342 22.776-16.65 15.928-28.56 34.318-29.644 45.788-0.002 0.006-0.002 0.012-0.002 0.018 0 0.002-0.002 0.004-0.002 0.006-0.078 0.824-0.098 1.482-0.088 1.984 2.634 0.64 9.63 1.35 26.002-1.756zM365.924 736.708c10.204 10.194 26.056 11.37 37.586 3.562 6.534-27.396 29.904-52.226 40.418-62.286 7.792-7.456 32.794-29.81 58.030-35.954 3.414-4.894 5.272-10.728 5.272-16.884 0-7.93-3.050-15.344-8.608-20.896-5.542-5.552-12.968-8.608-20.912-8.608-7.946 0-15.372 3.056-20.94 8.634l-0.012 0.012-90.836 90.672c-5.538 5.53-8.588 12.944-8.588 20.872 0.002 7.93 3.052 15.344 8.59 20.876zM313.292 648.814c5.542 5.55 12.96 8.608 20.892 8.608 7.942 0 15.384-3.064 20.962-8.636l73.144-72.998c11.518-11.536 11.518-30.308 0.040-41.804-5.572-5.55-13.024-8.606-20.982-8.606s-15.41 3.056-20.958 8.582l-55.492 55.48c-0.086 0.086-0.18 0.166-0.268 0.254l-17.36 17.352c-5.57 5.564-8.636 12.992-8.63 20.916 0.008 7.898 3.064 15.288 8.652 20.852zM260.56 560.938c5.546 5.538 12.98 8.588 20.936 8.588 7.89 0 15.26-3.006 20.782-8.448l55.66-55.634c5.55-5.528 8.608-12.934 8.608-20.854 0-7.918-3.058-15.324-8.63-20.874-5.544-5.536-12.97-8.586-20.912-8.586-7.954 0-15.404 3.058-20.956 8.586l-20.178 20.154c-0.004 0.006-0.010 0.010-0.014 0.014l-35.294 35.252c-5.564 5.558-8.628 12.982-8.628 20.902 0 7.918 3.064 15.344 8.626 20.9zM225.48 455.366c5.57 5.564 13.014 8.628 20.96 8.628 7.944 0 15.386-3.062 20.954-8.622l20.206-20.182c5.552-5.528 8.608-12.934 8.608-20.854s-3.058-15.324-8.65-20.896c-5.542-5.55-12.968-8.608-20.912-8.608-7.946 0-15.372 3.056-20.954 8.648l-2.53 2.52c-0.034 0.034-0.060 0.070-0.092 0.102-0.038 0.036-0.078 0.068-0.116 0.104l-17.454 17.386c-11.518 11.542-11.528 30.28-0.020 41.774zM635.948 226.45c-7.862 7.872-20.616 7.878-28.484 0.018l-17.92-17.898c-17.028-17.028-47.882-14.884-77.72-12.814-32.402 2.252-65.908 4.576-87.59-17.684l-74.19-74.1-185.526 185.254 65.656 65.538c10.852-6.652 23.374-10.218 36.476-10.218 18.718 0 36.27 7.256 49.38 20.39 13.198 13.144 20.468 30.686 20.468 49.398 0 0.174-0.012 0.346-0.012 0.52 0.174-0.002 0.348-0.012 0.522-0.012 18.692 0 36.23 7.234 49.358 20.346 13.198 13.144 20.468 30.688 20.468 49.398 0 0.174-0.012 0.346-0.012 0.52 0.176 0 0.352-0.012 0.53-0.012 18.686 0 36.234 7.226 49.45 20.388 13.72 13.742 20.506 31.834 20.376 49.888 0.18-0.002 0.36-0.012 0.54-0.012 18.718 0.002 36.268 7.256 49.398 20.41 13.158 13.142 20.406 30.678 20.406 49.378 0 13.078-3.556 25.58-10.186 36.41l57.546 57.522c4.288 4.27 9.576 6.95 15.118 8.056 0.6 0.064 1.192 0.16 1.778 0.276 8.892 1.226 18.23-1.518 25.030-8.29 11.518-11.538 11.518-30.31 0.042-41.806l-17.526-17.454c-0.058-0.058-0.12-0.11-0.178-0.168l-20.186-20.152c-7.872-7.86-7.88-20.614-0.018-28.484 7.864-7.872 20.616-7.878 28.484-0.018l17.596 17.572c0.004 0.004 0.008 0.008 0.012 0.012l2.66 2.65c11.55 11.444 30.262 11.42 41.8-0.102 5.552-5.528 8.61-12.934 8.61-20.854 0-7.918-3.058-15.324-8.654-20.896l-17.626-17.662c-0.002-0.002-0.004-0.004-0.006-0.008l-20.184-20.102c-7.882-7.85-7.908-20.604-0.058-28.484 7.85-7.882 20.602-7.906 28.484-0.058l20.276 20.194c5.542 5.552 12.968 8.608 20.912 8.608 7.946 0 15.374-3.056 20.956-8.648 5.552-5.53 8.608-12.936 8.608-20.856 0-7.918-3.056-15.324-8.64-20.884l-35.14-35.154c-7.864-7.868-7.862-20.62 0.004-28.484 3.934-3.932 9.086-5.896 14.24-5.896 5.156 0 10.312 1.968 14.244 5.902l17.222 17.228c0.098 0.094 0.204 0.176 0.302 0.274 5.542 5.552 12.968 8.608 20.912 8.608 7.946 0 15.372-3.056 20.934-8.628 11.506-11.494 11.496-30.234 0-41.75l-17.51-17.49c-0.006-0.006-0.014-0.012-0.020-0.018s-0.012-0.014-0.018-0.020l-27.792-27.758c-7.87-7.862-7.878-20.616-0.018-28.486 3.934-3.938 9.094-5.908 14.252-5.908 5.15 0 10.302 1.964 14.234 5.89l13.594 13.578 65.154-65.078-185.51-185.284-66.468 66.388c4.634 2.98 9.068 6.484 13.23 10.646l17.91 17.888c7.874 7.858 7.882 20.612 0.020 28.482zM974.104 201.506l-215.882-215.62c-5.050-5.044-11.81-7.822-19.034-7.822s-13.984 2.778-19.036 7.824l-35.594 35.55c-5.044 5.036-7.822 11.776-7.822 18.978 0 7.2 2.778 13.94 7.822 18.978l215.882 215.62c5.052 5.046 11.81 7.824 19.036 7.824 7.224 0 13.984-2.778 19.048-7.836l35.582-35.482c5.044-5.038 7.822-11.786 7.822-19.006-0.002-7.222-2.78-13.972-7.824-19.008zM242.756 846.86c3.932-3.924 9.080-5.884 14.228-5.884 5.16 0 10.322 1.972 14.256 5.914 7.858 7.874 7.846 20.626-0.028 28.484l-73.396 73.25c-7.872 7.858-20.626 7.848-28.484-0.028-7.858-7.874-7.846-20.626 0.028-28.484zM763.444 840.976c5.15 0 10.302 1.964 14.234 5.89l73.34 73.252c7.87 7.86 7.878 20.614 0.016 28.484-7.86 7.87-20.612 7.878-28.484 0.016l-73.34-73.252c-7.87-7.86-7.878-20.614-0.016-28.484 3.934-3.938 9.092-5.906 14.25-5.906zM125.638 93.592c-7.798-7.932-7.69-20.686 0.244-28.484l0.058-0.056c3.914-3.848 8.996-5.764 14.076-5.764 5.214 0 10.428 2.018 14.378 6.036 7.798 7.932 7.66 20.714-0.272 28.512-7.93 7.798-20.682 7.688-28.484-0.244zM685.212 255.466c3.064 0 6.172 0.698 9.090 2.168 9.932 5.010 13.922 17.122 8.914 27.054-5.010 9.932-17.124 13.924-27.054 8.914l-0.112-0.056c-9.932-5.010-13.866-17.094-8.858-27.026 3.536-7.016 10.648-11.054 18.020-11.054z" />
<glyph unicode="&#xe907;" glyph-name="customer-service" d="M863.263 313.794l-174.080-73.542c0.31 2.172 0.621 4.344 0.621 6.672 0 33.823-27.462 61.285-61.285 61.285h-125.362c-5.12 0-10.085 1.086-14.739 3.258l-106.279 48.097c-16.601 7.447-35.064 11.481-53.217 11.481h-86.575v-31.030h86.575c13.808 0 27.772-2.948 40.495-8.688l106.279-48.097c8.688-3.879 17.998-5.896 27.617-5.896h125.362c16.756 0 30.255-13.653 30.255-30.255s-13.653-30.255-30.255-30.255h-162.444v-31.030h162.288c10.705 0 20.635 2.948 29.324 7.758v-0.155l217.367 92.005c17.998 7.602 37.702 7.447 55.544-0.31 13.653-6.051 24.824-15.825 32.272-28.548l-383.69-203.559c-29.324-15.515-64.233-18.618-95.884-8.533l-187.733 60.354-53.527 0.776v-31.030h46.39l185.406-59.578c15.36-4.965 31.185-7.292 47.166-7.292 25.135 0 50.269 6.051 72.611 17.998l408.824 216.592-4.499 12.722c-9.464 26.376-29.013 47.166-54.768 58.492-25.755 11.016-54.148 11.326-80.058 0.31zM208.679 50.192v329.387c0 17.067-13.964 31.030-31.030 31.030h-156.238v-31.030h156.238v-329.542h-156.238v-31.030h156.238c17.067 0.155 31.030 14.119 31.030 31.185zM136.844 98.444c0-11.947-9.775-21.721-21.721-21.721-12.102 0-21.876 9.775-21.876 21.721 0 12.102 9.775 21.876 21.876 21.876 11.947 0 21.721-9.775 21.721-21.876zM388.499 518.904l16.756-12.412 115.433 63.922 104.417-62.836 8.999-5.275 16.756 12.102-25.135 129.396 92.315 80.058 7.447 7.137-6.516 19.239-130.638 16.136-47.476 112.33-4.344 9.309-9.93 0.155h-10.55l-55.699-119.622-121.639-10.24-10.395-1.241-6.206-19.394 96.349-89.833zM375.312 730.221l96.504 8.378 9.154 1.086 44.528 95.573 37.702-88.902 3.879-8.533 104.882-12.878-72.611-62.992-7.292-6.206 20.17-103.952-83.161 50.114-7.913 4.189-92.005-51.045 21.566 93.091 2.638 9.619zM184.475 576.155l-22.497-96.659-3.103-11.171 17.532-12.878 96.659 53.527 85.333-51.2 9.619-6.051 17.222 12.567-21.101 108.451 22.497 19.394-20.325 23.428-29.944-25.91-4.499-5.275v-6.206l14.584-77.11-62.992 38.012-3.258 3.103-13.188 0.31-3.103-3.103-64.388-35.685 17.377 75.404v9.154l-60.354 56.165 73.852 6.516 7.137 0.155 6.516 6.516 33.047 71.059 29.789-70.284 4.81-9.154h8.688l37.392-4.655 3.879 30.875-29.944 3.568-39.408 93.091-5.275 9.93-21.411-1.707-2.948-9.154-41.891-90.143-98.676-8.533-12.257-0.621-6.516-22.652 8.533-5.585zM694.458 679.021l2.793-30.875 29.944 2.793 6.982 0.31 6.516 6.516 33.047 71.059 28.393-66.87 0.31-12.567h14.584l74.007-9.154-57.561-49.959-5.12-5.43v-6.672l14.739-76.955-63.147 37.857-3.258 3.258-13.653-0.155-2.793-2.948-64.078-35.53 17.532 75.404-0.155 9.154-39.719 37.081-21.256-22.652 28.393-26.531-22.342-96.659-3.103-10.395 16.912-13.964 97.28 53.838 85.488-51.355 9.619-5.896 16.912 12.722-21.101 108.296 74.628 64.698c5.12 4.034 7.292 10.861 5.585 17.067l-3.568 11.016-108.916 13.343-39.719 93.401-4.655 8.533-18.463 0.621-4.81-7.602-43.442-92.781z" />
<glyph unicode="&#xe908;" glyph-name="check-list" d="M613.045 800.918v34.653c0 30.225-24.59 54.817-54.815 54.817h-304.669c-30.225 0-54.815-24.59-54.815-54.817v-34.653c0-30.225 24.59-54.817 54.815-54.817h304.669c30.223 0 54.815 24.592 54.815 54.817zM228.743 800.918v34.653c0 13.684 11.132 24.818 24.816 24.818h304.669c13.684 0 24.816-11.132 24.816-24.818v-34.653c0-13.684-11.132-24.818-24.816-24.818h-304.667c-13.684 0-24.818 11.134-24.818 24.818zM626.504 259.993h-243.712c-8.283 0-14.999-6.717-14.999-14.999s6.717-14.999 14.999-14.999h243.712c8.283 0 14.999 6.717 14.999 14.999 0 8.285-6.717 14.999-14.999 14.999zM137.208 930.001h537.372c30.582 0 57.3-20.639 64.98-50.191 2.084-8.018 10.274-12.832 18.29-10.746 8.018 2.084 12.83 10.272 10.746 18.29-11.114 42.774-49.774 72.645-94.015 72.645h-537.372c-53.558 0-97.13-43.574-97.13-97.132v-728.616c0-42.724 27.376-79.983 68.121-92.722 7.957-2.487 16.335 1.983 18.792 9.839 2.473 7.908-1.935 16.319-9.839 18.792-28.155 8.801-47.072 34.558-47.072 64.089v728.618c-0.002 37.017 30.114 67.133 67.129 67.133zM626.504 449.584h-243.712c-8.283 0-14.999-6.717-14.999-14.999s6.717-14.999 14.999-14.999h243.712c8.283 0 14.999 6.717 14.999 14.999 0 8.285-6.717 14.999-14.999 14.999zM156.286 434.584c0-36.24 29.483-65.72 65.723-65.72s65.72 29.483 65.72 65.72c0 36.24-29.483 65.723-65.72 65.723-36.24-0.002-65.723-29.483-65.723-65.723zM257.732 434.584c0-19.698-16.025-35.722-35.722-35.722-19.698 0-35.724 16.025-35.724 35.722s16.025 35.724 35.724 35.724c19.696-0.002 35.722-16.025 35.722-35.724zM728.671 167.845l-46.902-46.9c-5.859-5.859-5.859-15.356 0-21.212 2.928-2.93 6.767-4.393 10.606-4.393s7.678 1.463 10.606 4.393l46.902 46.9c5.859 5.859 5.859 15.356 0 21.214-5.856 5.856-15.354 5.856-21.212-0.002zM222.008 179.271c36.24 0 65.72 29.483 65.72 65.723s-29.483 65.72-65.72 65.72c-36.24 0-65.723-29.483-65.723-65.72s29.483-65.723 65.723-65.723zM222.008 280.717c19.698 0 35.722-16.025 35.722-35.722s-16.025-35.724-35.722-35.724c-19.698 0-35.724 16.025-35.724 35.724 0 19.696 16.025 35.722 35.724 35.722zM964.48 361.301l-21.141 21.141c-25.978 25.98-68.034 25.986-94.017 0l-77.61-77.61v507.85c0 8.283-6.717 14.999-14.999 14.999s-14.999-6.717-14.999-14.999v-537.853l-179.017-179.017c-7.773-7.773-15.258-17.626-21.089-28.696h-358.836c-8.283 0-14.999-6.717-14.999-14.999s6.717-14.999 14.999-14.999h347.54l-10.12-34.641c-10.080-34.505 16.641-66.477 49.481-66.477 12.334 0 17.041 3.367 57.432 14.589 18.239 5.328 36.408 15.722 50.749 30.064l286.628 286.628c25.921 25.925 25.921 68.1 0 94.021zM576.107-33.052c-16.598-4.851-31.968 10.527-27.119 27.119l11.766 40.275 55.628-55.631zM645.231-7.712l-70.907 70.907c8.218 11.577 0.107 1.273 181.268 183.095l72.735-72.735c-182.439-181.776-171.59-173.104-183.095-181.268zM849.54 194.766l-72.735 72.735 35.993 35.993 72.735-72.735zM943.268 288.496l-36.523-36.523-72.735 72.735 36.523 36.523c14.257 14.257 37.333 14.259 51.593 0l21.141-21.141c14.224-14.226 14.224-37.369 0-51.593zM206.092 582.392l88.282 88.284c5.859 5.859 5.859 15.356 0 21.212-5.859 5.859-15.356 5.859-21.212 0l-77.676-77.676-24.634 24.634c-5.859 5.859-15.356 5.859-21.212 0-5.859-5.859-5.859-15.356 0-21.212l35.24-35.24c5.852-5.854 15.356-5.859 21.212-0.002zM626.504 639.174h-243.712c-8.283 0-14.999-6.717-14.999-14.999s6.717-14.999 14.999-14.999h243.712c8.283 0 14.999 6.717 14.999 14.999 0 8.285-6.717 14.999-14.999 14.999z" />
<glyph unicode="&#xe909;" glyph-name="right-quote" d="M227.093 809.414c-125.218 0-227.077-101.859-227.077-227.078 0-120.797 94.797-219.874 213.906-226.718 2.062-22.266 0.515-82.875-57.563-167.187-4.39-6.36-3.594-14.938 1.859-20.39 23.766-23.766 38.454-38.734 48.734-49.203 13.454-13.688 19.595-19.938 28.579-28.094 3.046-2.765 6.89-4.155 10.75-4.155 3.749 0 7.483 1.312 10.499 3.922 101.203 88.062 213.626 270.016 197.36 492.984-9.531 130.906-105.016 225.922-227.048 225.922zM246.437 124.446c-4.358 4.296-9.328 9.358-16.656 16.813-8.906 9.077-21.125 21.515-39.656 40.109 70.485 108.61 57.171 185.968 51.344 197.062-2.766 5.266-8.438 8.813-14.376 8.813-107.562 0-195.077 87.515-195.077 195.093 0 107.563 87.515 195.078 195.077 195.078 104.782 0 186.845-82.531 195.141-196.234 18.281-250.782-130.765-413.61-175.797-456.734zM1022.407 583.492v0.016c-9.563 130.89-105.062 225.906-227.062 225.906-125.219 0-227.094-101.859-227.094-227.078 0-120.797 94.813-219.874 213.938-226.718 2.062-22.25 0.499-82.827-57.594-167.187-4.39-6.36-3.594-14.938 1.859-20.39 23.672-23.672 38.328-38.61 48.61-49.062 13.515-13.781 19.688-20.062 28.718-28.25 3.046-2.75 6.906-4.141 10.75-4.141 3.75 0 7.485 1.312 10.499 3.938 101.203 88.062 213.626 270.014 197.376 492.968zM814.687 124.446c-4.39 4.328-9.405 9.421-16.797 16.952-8.906 9.064-21.077 21.469-39.531 39.97 70.485 108.626 57.189 185.968 51.376 197.062-2.766 5.25-8.453 8.813-14.39 8.813-107.579 0-195.094 87.515-195.094 195.093 0 107.563 87.515 195.078 195.094 195.078 104.765 0 186.843-82.531 195.155-196.25v0.016c18.266-250.75-130.781-413.61-175.813-456.734z" />
<glyph unicode="&#xe90a;" glyph-name="calendar" d="M906.664-64h-789.328c-64.727 0-117.336 52.609-117.336 117.336v704c0 64.727 52.609 117.328 117.336 117.328h789.328c64.727 0 117.336-52.602 117.336-117.328v-704c0-64.727-52.609-117.336-117.336-117.336zM117.336 810.664c-29.398 0-53.336-23.93-53.336-53.328v-704c0-29.398 23.938-53.336 53.336-53.336h789.328c29.398 0 53.336 23.938 53.336 53.336v704c0 29.398-23.938 53.328-53.336 53.328zM992 554.664h-960c-17.664 0-32 14.336-32 32s14.336 32 32 32h960c17.664 0 32-14.336 32-32s-14.336-32-32-32zM245.336 704c-17.664 0-32 14.336-32 32v192c0 17.664 14.336 32 32 32s32-14.336 32-32v-192c0-17.664-14.336-32-32-32zM778.664 704c-17.664 0-32 14.336-32 32v192c0 17.664 14.336 32 32 32s32-14.336 32-32v-192c0-17.664-14.336-32-32-32z" />
<glyph unicode="&#xe90b;" d="M1024 159.999c0-53.023-43.008-95.999-95.999-95.999h-832.002c-53.006 0-95.999 42.976-95.999 95.999v576.001c0 53.008 42.993 95.999 95.999 95.999h832c53.008 0 95.999-42.993 95.999-95.999v-576.001z" />
<glyph unicode="&#xe90c;" d="M95.999 832.001c-53.006 0-95.999-42.993-95.999-96.001v-576.001c0-24.561 9.28-46.88 24.448-63.856l735.873 735.858h-664.322z" />
<glyph unicode="&#xe90d;" d="M0 640h1024v-384.001h-1024v384.001z" />
<glyph unicode="&#xe90e;" d="M1024 159.999v95.999h-1024v-95.999c0-53.023 42.993-95.999 95.999-95.999h832c53.010 0 96.001 42.976 96.001 95.999z" />
<glyph unicode="&#xe90f;" d="M0 256v-95.999c0-24.561 9.297-46.88 24.448-63.856l159.855 159.855h-184.304z" />
<glyph unicode="&#xe910;" d="M0 640v-384.001h184.304l384.018 384.001z" />
<glyph unicode="&#xe911;" d="M424.992 357.568c-3.936-14.864-13.968-23.392-26.112-23.392-15.504 0-24 11.265-18.832 30.368l43.728 162.497c3.936 14.879 13.968 23.392 26.112 23.392 15.487 0 24-11.233 18.832-30.383l-43.728-162.482z" />
<glyph unicode="&#xe912;" d="M604.688 396.144c0 10.304-7.599 16.384-36.127 27.935-27.663 11.233-52.256 26.129-52.256 57.409 0 43.407 38.879 70.159 84.433 70.159 33.088 0 51.009-9.424 64.687-18.849 6.352-4.543 10.961-10.032 10.961-19.425 0-13.056-10.336-22.767-23.088-22.767-4.847 0-9.407 1.201-12.752 3.921-13.968 10.961-26.129 16.129-43.439 16.129-19.729 0-30.991-10.944-30.991-21.569 0-11.248 8.496-16.112 37.345-27.952 29.153-11.841 51.009-26.433 51.009-57.375 0-44.657-39.761-70.784-84.416-70.784-25.169 0-56.784 5.472-78.657 24.321-5.151 4.256-9.104 11.233-9.104 19.44 0 13.36 9.711 23.681 22.784 23.681 6.369 0 11.841-3.377 14.896-5.776 17.903-14.879 31.28-20.64 52.224-20.64 18.828-0.034 32.491 8.766 32.491 22.143z" />
<glyph unicode="&#xe913;" d="M896.001 356.655c0-12.159-10.032-22.495-24-22.495-13.056 0-21.248 7.92-22.784 18.545l-4.847 30.991h-94.161l-24.321-34.944c-5.761-8.192-13.968-14.592-23.681-14.592-12.144 0-19.121 7.295-19.121 18.256 0 12.992 3.664 12.975 123.633 181.312 9.216 13.279 20.16 18.224 33.679 18.224 15.808 0 23.071-8.496 25.536-22.177 1.075-6.080 30.067-166.959 30.067-173.12zM837.68 424.993l-10.961 70.159-47.985-70.159h58.945z" />
<glyph unicode="&#xe914;" d="M351.936 550.417c-10.336 0-18.224-5.472-24.304-14.896l-88.993-135.135-15.504 128.465c-1.632 14.352-11.777 21.569-24.593 21.569-18.32 0-9.937 0-46.561 0-13.247 0-24-10.753-24-24s10.753-24 24-24h25.2l21.97-149.107c2.448-16.144 10.544-20.655 23.985-20.655 12.767 0 22.784 6.687 30.991 18.832l114.801 168.272c2.127 3.009 4.256 9.104 4.256 13.345-0.002 11.853-9.091 17.31-21.25 17.31z" />
<glyph unicode="&#xe915;" glyph-name="three-o-clock-clock" d="M511.982 960c-282.286 0-511.982-229.677-511.982-512s229.695-512 511.982-512c282.341 0 512 229.677 512 512s-229.659 512-512 512zM511.982 4.263c-244.669 0-443.719 199.050-443.719 443.737s199.068 443.737 443.719 443.737c244.706 0 443.737-199.050 443.737-443.737s-199.013-443.737-443.737-443.737zM765.553 485.065h-219.431v290.141c0 18.855-15.286 34.141-34.122 34.141-18.818 0-34.104-15.304-34.104-34.141v-358.385h287.657c18.836 0 34.122 15.268 34.104 34.122 0 18.836-15.304 34.122-34.104 34.122z" />
<glyph unicode="&#xe916;" glyph-name="email" d="M934 808h-844c-49.524 0-90-40.298-90-90v-540c0-49.72 40.502-90 90-90h844c49.524 0 90 40.298 90 90v540c0 49.714-40.496 90-90 90zM920.18 748c-29.098-29.194-370.89-372.1-384.932-386.188-11.728-11.764-34.762-11.772-46.496 0l-384.932 386.188h816.36zM60 189.030v517.94l258.13-258.97-258.13-258.97zM103.82 148l256.668 257.504 85.77-86.050c35.148-35.262 96.35-35.248 131.486 0l85.77 86.048 256.666-257.502h-816.36zM964 189.030l-258.13 258.97 258.13 258.97v-517.94z" />
<glyph unicode="&#xe917;" glyph-name="facebook-logo" d="M767.965 959.787l-132.79 0.213c-149.185 0-245.595-98.913-245.595-252.008v-116.192h-133.514c-11.537 0-20.88-9.353-20.88-20.891v-168.35c0-11.537 9.353-20.88 20.88-20.88h133.514v-424.8c0-11.537 9.343-20.88 20.88-20.88h174.198c11.537 0 20.88 9.353 20.88 20.88v424.8h156.109c11.537 0 20.88 9.343 20.88 20.88l0.064 168.35c0 5.54-2.205 10.845-6.115 14.765s-9.236 6.125-14.776 6.125h-156.163v98.498c0 47.342 11.282 71.375 72.952 71.375l89.453 0.032c11.527 0 20.869 9.353 20.869 20.88v156.322c0 11.516-9.332 20.859-20.848 20.88z" />
<glyph unicode="&#xe918;" glyph-name="twitter" d="M918.784 656.512c41.643 29.568 76.672 66.475 105.216 108.971v0.043c-38.101-16.683-78.635-27.776-120.96-33.152 43.52 25.984 76.757 66.816 92.373 116.011-40.576-24.192-85.376-41.259-133.12-50.816-38.528 41.045-93.44 66.432-153.344 66.432-116.224 0-209.792-94.336-209.792-209.963 0-16.64 1.408-32.64 4.864-47.872-174.507 8.533-328.96 92.16-432.725 219.605-18.091-31.445-28.757-67.413-28.757-106.112 0-72.704 37.419-137.131 93.269-174.464-33.749 0.64-66.816 10.453-94.848 25.856v-2.304c0-102.016 72.747-186.752 168.192-206.293-17.109-4.693-35.712-6.912-55.040-6.912-13.44 0-27.008 0.768-39.723 3.584 27.179-83.115 104.405-144.256 196.139-146.261-71.424-55.851-162.133-89.515-260.309-89.515-17.195 0-33.707 0.768-50.219 2.859 93.013-59.947 203.179-94.208 322.048-94.208 370.475 0 611.925 309.077 596.736 624.512z" />
<glyph unicode="&#xe919;" glyph-name="pinterest" d="M810.035 855.067c-70.486 67.666-168.031 104.933-274.665 104.933-162.889 0-263.073-66.771-318.432-122.781-68.227-69.026-107.351-160.679-107.351-251.464 0-113.986 47.678-201.474 127.52-234.022 5.36-2.196 10.754-3.303 16.041-3.303 16.844 0 30.19 11.021 34.814 28.7 2.695 10.143 8.94 35.164 11.655 46.026 5.813 21.451 1.116 31.769-11.559 46.707-23.092 27.323-33.846 59.633-33.846 101.683 0 124.901 93.004 257.646 265.378 257.646 136.771 0 221.733-77.735 221.733-202.868 0-78.964-17.009-152.092-47.902-205.923-21.468-37.403-59.217-81.989-117.17-81.989-25.061 0-47.572 10.294-61.777 28.241-13.419 16.966-17.841 38.883-12.445 61.724 6.097 25.807 14.41 52.727 22.455 78.753 14.674 47.532 28.545 92.426 28.545 128.244 0 61.265-37.664 102.43-93.714 102.43-71.232 0-127.038-72.349-127.038-164.709 0-45.296 12.038-79.175 17.488-92.185-8.973-38.021-62.305-264.060-72.421-306.685-5.849-24.882-41.086-221.409 17.237-237.081 65.529-17.607 124.102 173.798 130.063 195.427 4.832 17.59 21.738 84.103 32.099 124.99 31.633-30.471 82.567-51.070 132.128-51.070 93.43 0 177.454 42.043 236.595 118.378 57.358 74.040 88.948 177.236 88.948 290.564 0 88.598-38.047 175.941-104.378 239.63z" />
<glyph unicode="&#xe91a;" glyph-name="linkedin" d="M238.361 630.569h-205.57c-9.124 0-16.516-7.396-16.516-16.516v-660.407c0-9.124 7.393-16.516 16.516-16.516h205.57c9.124 0 16.516 7.393 16.516 16.516v660.407c0 9.12-7.393 16.516-16.516 16.516zM135.65 958.874c-74.798 0-135.65-60.786-135.65-135.502 0-74.749 60.852-135.558 135.65-135.558 74.739 0 135.541 60.812 135.541 135.558 0.003 74.716-60.802 135.502-135.541 135.502zM761.242 646.983c-82.564 0-143.598-35.493-180.617-75.822v42.892c0 9.12-7.393 16.516-16.516 16.516h-196.869c-9.124 0-16.516-7.396-16.516-16.516v-660.407c0-9.124 7.393-16.516 16.516-16.516h205.12c9.124 0 16.516 7.393 16.516 16.516v326.748c0 110.106 29.907 153.002 106.661 153.002 83.591 0 90.234-68.767 90.234-158.667v-321.087c0-9.124 7.393-16.516 16.516-16.516h205.196c9.124 0 16.516 7.393 16.516 16.516v362.245c0 163.724-31.219 331.096-262.758 331.096z" />
<glyph unicode="&#xe91b;" glyph-name="search" d="M466.752 877.598c-211.572 0-383.917-172.345-383.917-383.918 0-211.571 172.345-384.25 383.917-384.25 90.369 0 173.48 31.668 239.167 84.25l159.917-159.833c7.668-7.36 18.1-11.892 29.59-11.892 23.616 0 42.76 19.145 42.76 42.76 0 11.469-4.515 21.884-11.866 29.563l0.015-0.016-159.917 159.917c52.626 65.788 84.333 149.027 84.333 239.5 0 211.573-172.428 383.918-384 383.918zM466.752 792.264c165.454 0 298.583-133.13 298.583-298.584s-133.129-298.916-298.583-298.916-298.583 133.462-298.583 298.916 133.129 298.584 298.583 298.584z" />
<glyph unicode="&#xe91c;" glyph-name="play" d="M837.44 564.16l-549.44 317.44c-14.828 8.917-32.696 14.249-51.798 14.4h-0.042c-59.735 0-108.16-48.425-108.16-108.16v0-681.28c0.012-58.843 47.716-106.54 106.56-106.54 20.996 0 40.574 6.072 57.073 16.557l-0.433-0.257 550.080 347.52c33.149 20.989 54.837 57.466 54.837 99.009 0 43.117-23.363 80.777-58.12 101.012l-0.557 0.299z" />
<glyph unicode="&#xe91d;" glyph-name="users" d="M938.906 185.361l-163.038 81.51c-15.377 7.697-24.934 23.159-24.934 40.363v57.702c3.908 4.779 8.021 10.223 12.271 16.23 21.146 29.867 38.093 63.113 50.415 98.97 24.081 11.042 39.714 34.85 39.714 61.73v68.267c0 16.435-6.144 32.358-17.067 44.8v90.778c0.956 9.387 4.71 65.263-35.703 111.36-35.055 39.987-91.938 60.262-169.097 60.262s-134.042-20.275-169.097-60.245c-24.491-27.938-32.734-59.409-35.226-82.005-29.252 15.121-63.727 22.784-102.878 22.784-177.306 0-187.631-151.125-187.733-153.6v-78.148c-11.059-12.049-17.067-25.958-17.067-39.765v-58.948c0-18.415 8.243-35.584 22.374-47.189 14.080-53.077 48.708-93.184 62.191-107.264v-46.814c0-13.431-7.305-25.754-19.985-32.683l-113.545-71.219c-43.486-23.723-70.502-69.239-70.502-118.767v-64.802h1024v69.001c0 58.675-32.614 111.445-85.094 137.694zM238.933 50.995v-38.195h-204.8v30.669c0 37.035 20.207 71.066 53.606 89.31l113.527 71.219c22.75 12.407 36.881 36.198 36.881 62.14v61.286l-5.427 5.069c-0.444 0.41-45.79 43.247-59.187 101.632l-1.553 6.758-5.837 3.755c-7.851 5.086-12.544 13.602-12.544 22.767v58.948c0 6.144 4.181 13.449 11.452 20.036l5.615 5.069-0.034 91.819c0.307 4.898 9.199 120.457 153.634 120.457 40.841 0 75.23-9.438 102.4-28.058v-80.742c-10.923-12.442-17.067-28.365-17.067-44.8v-68.267c0-5.188 0.597-10.291 1.724-15.241 0.461-1.98 1.382-3.789 2.014-5.7 0.939-2.867 1.69-5.82 3.004-8.533 0.017-0.034 0.034-0.051 0.051-0.085 4.369-9.011 10.735-17.067 18.756-23.501 0.085-0.324 0.188-0.614 0.273-0.922 1.024-3.908 2.099-7.799 3.26-11.605l1.382-4.454c0.239-0.785 0.529-1.587 0.785-2.372 0.597-1.843 1.178-3.669 1.792-5.478 1.024-2.987 2.099-6.076 3.345-9.438 0.529-1.399 1.109-2.662 1.655-4.045 1.399-3.567 2.799-7.014 4.267-10.428 0.358-0.819 0.666-1.707 1.024-2.509l0.956-2.15c0.444-0.99 0.905-1.877 1.348-2.85 1.673-3.652 3.311-7.185 5.018-10.598 0.273-0.546 0.529-1.143 0.802-1.69 1.075-2.133 2.15-4.147 3.226-6.195 1.843-3.516 3.652-6.827 5.461-10.035 0.887-1.57 1.758-3.106 2.628-4.591 2.458-4.198 4.796-8.055 7.066-11.639 0.495-0.768 0.973-1.57 1.451-2.304 4.13-6.4 7.714-11.588 10.684-15.633 0.785-1.075 1.468-1.997 2.133-2.901 0.375-0.495 0.887-1.212 1.212-1.655v-56.474c0-16.521-9.011-31.676-23.501-39.595l-45.158-24.627-7.868 0.7-3.209-6.741-96.017-52.378c-49.493-27.034-80.23-78.814-80.23-135.202zM989.867 12.8h-716.8v38.195c0 43.878 23.927 84.207 62.447 105.199l152.252 83.046c25.481 13.909 41.301 40.585 41.301 69.581v68.591l-3.311 3.959-0.649 0.768c-0.034 0.051-1.092 1.331-2.816 3.584-0.102 0.137-0.205 0.273-0.324 0.41-0.905 1.178-1.963 2.594-3.174 4.284-0.017 0.034-0.034 0.051-0.051 0.085-2.543 3.533-5.734 8.124-9.284 13.653-0.085 0.119-0.154 0.256-0.239 0.375-1.673 2.611-3.447 5.461-5.257 8.482-0.137 0.222-0.273 0.444-0.41 0.683-3.857 6.468-7.953 13.79-12.032 21.897 0 0-0.017 0.017-0.017 0.034-2.167 4.352-4.335 8.926-6.451 13.687v0c-0.29 0.666-0.597 1.314-0.887 1.98v0c-0.939 2.133-1.877 4.369-2.833 6.673-0.341 0.836-0.683 1.707-1.024 2.56-0.887 2.236-1.792 4.489-2.748 7.066-1.741 4.642-3.379 9.489-4.949 14.49l-0.939 3.038c-0.102 0.341-0.222 0.683-0.324 1.041-1.604 5.393-3.14 10.906-4.437 16.572l-1.553 6.758-5.82 3.755c-9.899 6.383-15.804 17.084-15.804 28.621v68.267c0 9.574 4.062 18.5 11.435 25.173l5.632 5.069v112.333l-0.461 0.358c-0.58 12.322 0.154 50.091 27.699 81.51 28.279 32.273 76.544 48.623 143.428 48.623 66.645 0 114.807-16.23 143.121-48.265 33.229-37.564 27.733-85.623 27.699-86.033l-0.154-108.527 5.632-5.086c7.373-6.656 11.435-15.582 11.435-25.156v-68.267c0-14.899-9.762-27.938-24.269-32.41l-8.499-2.611-2.731-8.448c-11.418-35.516-27.682-68.318-48.367-97.502-5.069-7.185-10.001-13.551-14.285-18.415l-4.25-4.847v-70.4c0-30.208 16.777-57.361 43.793-70.878l163.038-81.51c40.858-20.429 66.236-61.491 66.236-107.179v-34.867z" />
<glyph unicode="&#xe91e;" glyph-name="presentation" d="M512-64c-11.776 0-21.333 9.557-21.333 21.333v256c0 11.776 9.557 21.333 21.333 21.333s21.333-9.557 21.333-21.333v-256c0-11.776-9.557-21.333-21.333-21.333zM704-64c-4.053 0-8.149 1.152-11.819 3.584l-192 128c-9.813 6.528-12.459 19.755-5.931 29.568s19.712 12.459 29.568 5.931l192-128c9.813-6.528 12.459-19.755 5.931-29.568-4.096-6.187-10.88-9.515-17.749-9.515zM320-64c-6.912 0-13.653 3.328-17.792 9.515-6.528 9.813-3.883 23.040 5.931 29.568l192 128c9.813 6.571 23.083 3.883 29.568-5.931 6.528-9.813 3.883-23.040-5.931-29.568l-192-128c-3.584-2.432-7.68-3.584-11.776-3.584zM938.667 746.667h-853.333c-47.061 0-85.333 38.272-85.333 85.333s38.272 85.333 85.333 85.333h853.333c47.061 0 85.333-38.272 85.333-85.333s-38.272-85.333-85.333-85.333zM85.333 874.667c-23.509 0-42.667-19.157-42.667-42.667s19.157-42.667 42.667-42.667h853.333c23.509 0 42.667 19.157 42.667 42.667s-19.157 42.667-42.667 42.667zM874.667 192h-725.333c-35.285 0-64 28.715-64 64v512c0 11.776 9.557 21.333 21.333 21.333h810.667c11.776 0 21.333-9.557 21.333-21.333v-512c0-35.285-28.715-64-64-64zM128 746.667v-490.667c0-11.776 9.557-21.333 21.333-21.333h725.333c11.776 0 21.333 9.557 21.333 21.333v490.667zM277.333 320c-5.461 0-10.923 2.091-15.104 6.229-8.32 8.32-8.32 21.845 0 30.165l170.667 170.667c7.211 7.211 18.475 8.32 26.923 2.688l111.744-74.496 158.421 198.059c7.381 9.131 20.779 10.709 29.995 3.328 9.173-7.381 10.667-20.779 3.328-29.995l-170.667-213.333c-6.912-8.619-19.243-10.624-28.501-4.437l-113.451 75.605-158.293-158.293c-4.139-4.096-9.6-6.187-15.061-6.187z" />
<glyph unicode="&#xe91f;" glyph-name="coffee-cup" d="M426.667 64c-211.712 0-384 172.288-384 384v149.333c0 11.776 9.557 21.333 21.333 21.333h725.333c11.776 0 21.333-9.557 21.333-21.333v-149.333c0-211.712-172.288-384-384-384zM85.333 576v-128c0-188.203 153.131-341.333 341.333-341.333s341.333 153.131 341.333 341.333v128zM874.667 234.667h-140.416c-11.776 0-21.333 9.557-21.333 21.333s9.557 21.333 21.333 21.333h140.416c58.795 0 106.667 47.872 106.667 106.667s-47.872 106.667-106.667 106.667h-85.333c-11.776 0-21.333 9.557-21.333 21.333s9.557 21.333 21.333 21.333h85.333c82.347 0 149.333-66.987 149.333-149.333s-66.987-149.333-149.333-149.333zM302.635 704c-6.613 0-13.141 3.072-17.323 8.832-6.912 9.557-4.736 22.869 4.779 29.781 13.397 9.728 20.224 21.888 19.115 34.261-1.237 14.080-12.373 27.179-30.507 35.925-32 15.403-51.84 41.131-54.443 70.571-2.432 27.52 10.923 53.973 36.651 72.576 9.515 6.955 22.869 4.779 29.781-4.779s4.736-22.869-4.779-29.781c-13.44-9.728-20.224-21.888-19.157-34.261 1.237-14.080 12.373-27.179 30.507-35.925 32-15.403 51.84-41.131 54.443-70.571 2.432-27.563-10.923-54.016-36.608-72.619-3.755-2.688-8.149-4.011-12.459-4.011zM505.301 704c-6.613 0-13.141 3.072-17.323 8.832-6.912 9.557-4.736 22.869 4.779 29.781 13.397 9.728 20.224 21.888 19.115 34.261-1.237 14.080-12.373 27.179-30.507 35.925-32 15.403-51.84 41.131-54.443 70.571-2.432 27.563 10.923 54.016 36.608 72.619 9.515 6.955 22.869 4.779 29.781-4.779s4.736-22.869-4.779-29.781c-13.397-9.728-20.224-21.888-19.115-34.261 1.237-14.080 12.373-27.179 30.507-35.925 32-15.403 51.84-41.131 54.443-70.571 2.432-27.563-10.923-54.016-36.608-72.619-3.755-2.731-8.149-4.053-12.459-4.053zM746.667-64h-640c-58.795 0-106.667 47.872-106.667 106.667v42.667c0 11.776 9.557 21.333 21.333 21.333h810.667c11.776 0 21.333-9.557 21.333-21.333v-42.667c0-58.795-47.872-106.667-106.667-106.667zM42.667 64v-21.333c0-35.285 28.715-64 64-64h640c35.285 0 64 28.715 64 64v21.333z" />
<glyph unicode="&#xe920;" glyph-name="money" d="M683.907 303.285c-24.262 0-44 17.084-44 38.082 0 21 19.738 38.084 44 38.084s44-17.084 44-38.084c0-11.044 8.956-20 20-20s20 8.956 20 20c0 36.65-27.308 67.466-64 75.83v10.402c0 11.044-8.956 20-20 20s-20-8.956-20-20v-10.402c-36.692-8.364-64-39.18-64-75.83 0-43.054 37.682-78.082 84-78.082 24.262 0 44-17.084 44-38.084s-19.738-38.084-44-38.084c-24.262 0-44 17.084-44 38.084 0 11.044-8.956 20-20 20s-20-8.956-20-20c0-36.65 27.308-67.466 64-75.83v-8.64c0-11.044 8.956-20 20-20s20 8.956 20 20v8.64c36.692 8.364 64 39.18 64 75.83 0 43.056-37.682 78.084-84 78.084zM902.962 422.249c-26.126 40.71-62.934 73.286-106.444 94.202-9.958 4.788-21.908 0.596-26.692-9.36-4.786-9.956-0.596-21.904 9.36-26.69 75.822-36.448 124.812-114.326 124.812-198.402 0-35.976-8.868-71.654-25.642-103.182-5.188-9.75-1.49-21.862 8.262-27.050 2.992-1.592 6.208-2.348 9.376-2.348 7.156 0 14.078 3.852 17.674 10.61 19.842 37.288 30.33 79.466 30.33 121.97 0 49.92-14.19 98.418-41.036 140.25zM715.345 541.997l-1.346 0.002c-11.044 0-20-8.954-20-20s8.956-20 20-20l1.158-0.002c0.032 0 0.062 0 0.096 0 11.002 0 19.946 8.892 19.998 19.906 0.050 11.046-8.862 20.042-19.906 20.094zM588.813 83.598c-75.82 36.45-124.81 114.328-124.81 198.402 0 35.976 8.868 71.654 25.642 103.182 5.188 9.75 1.49 21.862-8.262 27.050-9.748 5.188-21.864 1.49-27.050-8.262-19.842-37.29-30.33-79.466-30.33-121.97 0-49.92 14.19-98.416 41.036-140.25 26.126-40.71 62.934-73.286 106.444-94.204 2.794-1.344 5.746-1.978 8.652-1.978 7.448 0 14.596 4.178 18.040 11.338 4.782 9.956 0.594 21.906-9.362 26.692zM654.003 62l-1.158 0.004c-11.096 0.020-20.040-8.858-20.090-19.906-0.052-11.046 8.864-20.042 19.908-20.094l1.34-0.004c11.044 0 20 8.956 20 20s-8.956 20-20 20zM774.816 609.665c-2.434 5.8-5.416 11.266-8.886 16.336h52.068c50.728 0 92 41.272 92 92s-41.272 92-92 92h-160.16c10.182 14.804 16.16 32.714 16.16 52 0 50.728-41.272 92-92 92h-489.999c-50.728 0-92-41.272-92-92s41.272-92 92-92h160.16c-10.182-14.804-16.16-32.714-16.16-52s5.976-37.196 16.16-52h-52.16c-50.728 0-92-41.272-92-92 0-29.134 13.628-55.132 34.83-72-21.202-16.868-34.83-42.866-34.83-72s13.628-55.132 34.83-72c-21.202-16.868-34.83-42.866-34.83-72s13.628-55.132 34.83-72c-21.202-16.868-34.83-42.866-34.83-72 0-50.728 41.272-92 92-92h235.7c62.092-66.414 150.424-108.002 248.302-108.002 187.476 0 339.999 152.524 339.999 339.999 0 156.034-105.66 287.835-249.184 327.665zM817.998 770c28.674 0 52-23.328 52-52s-23.326-52-52-52h-489.999c-28.674 0-52 23.328-52 52s23.326 52 52 52h489.999zM92 810c-28.674 0-52 23.328-52 52s23.326 52 52 52h489.999c28.674 0 52-23.328 52-52s-23.326-52-52-52h-489.999zM200 626.001h489.999c8.056 0 15.77-1.872 22.69-5.224-9.46 0.794-19.024 1.222-28.688 1.222-93.89 0-179.010-38.258-240.598-99.998h-243.404c-28.672 0-52 23.328-52 52s23.328 52 52 52zM200 482.001h209.23c-22.704-31.106-40.258-66.19-51.406-104h-157.824c-28.674 0-52 23.326-52 52 0 28.672 23.326 52 52 52zM200 338.001h148.64c-3.034-18.226-4.638-36.928-4.638-56.002 0-16.292 1.178-32.312 3.404-47.998h-147.406c-28.674 0-52 23.326-52 52s23.326 52 52 52zM200 90.002c-28.674 0-52 23.326-52 52s23.326 52 52 52h155.572c10.092-37.626 26.486-72.692 47.986-104h-203.558zM684.001-18c-165.42 0-299.999 134.58-299.999 299.999s134.58 299.999 299.999 299.999 299.999-134.58 299.999-299.999-134.58-299.999-299.999-299.999z" />
<glyph unicode="&#xe921;" glyph-name="chat" d="M118.097 161.323c-34.217 0-67.646 8.732-97.942 25.744-15.588 8.027-21.625 28.111-12.313 43.22 30.94 49.44 42.112 109.875 27.946 166.711-14.683 58.922-35.928 108.547-35.776 170.923 0.527 218.84 182.676 396.251 401.293 392.006 211.157-4.253 385.18-181.756 385.183-392.969 0.003-275.848-289.089-469.516-544.305-362.995-35.178-27.612-79.394-42.64-124.086-42.64zM76.519 228.672c48.076-14.931 102.147-3.003 139.22 32.838 9.135 8.833 22.799 11.056 34.26 5.574 218.5-104.468 475.658 59.277 475.655 299.873 0 179.536-146.054 328.537-325.574 332.151-185.005 3.675-338.792-146.16-339.238-331.335-0.144-59.246 22.971-106.595 35.603-162.719 13.309-59.145 6.298-121.689-19.927-176.383zM905.9-64c-44.69 0-88.909 15.030-124.081 42.637-135.728-56.646-297.176-30.849-408.463 65.258-12.714 10.98-14.118 30.185-3.14 42.901 10.98 12.711 30.185 14.12 42.898 3.138 98.702-85.238 243.253-104.413 360.886-48.175 11.459 5.485 25.12 3.259 34.26-5.574 37.071-35.839 91.144-47.775 139.22-32.836-30.937 64.528-35.223 138.455-11.249 206.894 0.215 0.616 0.451 1.222 0.705 1.825 17.509 41.276 26.332 85.145 26.223 130.382-0.193 79.759-26.725 153.538-76.732 213.367-10.772 12.891-9.056 32.070 3.832 42.842 12.886 10.775 32.070 9.056 42.842-3.832 58.387-69.856 90.665-159.431 90.888-252.23 0.129-53.153-10.184-104.737-30.651-153.341-21.498-62.232-11.611-128.864 22.816-184.288 9.32-15.111 3.277-35.198-12.316-43.23-30.291-17.005-63.727-25.736-97.939-25.739zM441.375 565.442c0-26.566-21.547-48.102-48.127-48.102s-48.127 21.536-48.127 48.102c0 26.566 21.547 48.102 48.127 48.102s48.127-21.536 48.127-48.102zM264.064 565.442c0-26.566-21.547-48.102-48.127-48.102s-48.127 21.536-48.127 48.102c0 26.566 21.547 48.102 48.127 48.102s48.127-21.536 48.127-48.102zM618.688 565.442c0-26.566-21.547-48.102-48.127-48.102s-48.127 21.536-48.127 48.102c0 26.566 21.547 48.102 48.127 48.102s48.127-21.536 48.127-48.102z" />
<glyph unicode="&#xe922;" glyph-name="problem" d="M414.72 958.72c-0.479 0.002-1.046 0.003-1.612 0.003-228.337 0-413.44-185.103-413.44-413.44s185.103-413.44 413.44-413.44c88.863 0 171.179 28.035 238.583 75.744l-1.291-0.867c1.951-23.41 12.030-44.153 27.37-59.69l-0.010 0.010 180.96-181.6c17.382-17.382 41.396-28.133 67.92-28.133 53.049 0 96.053 43.005 96.053 96.053 0 26.524-10.751 50.538-28.133 67.92l-180.96 180.96c-15.527 15.33-36.27 25.409-59.33 27.336l-0.35 0.024c46.33 65.835 74.045 147.681 74.045 236 0 228.16-184.96 413.12-413.12 413.12-0.044 0-0.088 0-0.132 0h0.007zM65.28 545.28c0 0.048 0 0.104 0 0.16 0 192.99 156.45 349.44 349.44 349.44s349.44-156.45 349.44-349.44c0-192.99-156.45-349.44-349.44-349.44v0c-192.824 0.273-349.076 156.468-349.44 349.245v0.035zM949.28 56c5.794-5.794 9.378-13.799 9.378-22.64 0-17.683-14.335-32.018-32.018-32.018-8.841 0-16.846 3.584-22.64 9.378v0l-180.96 181.28c-7.4 5.913-12.099 14.937-12.099 25.059 0 17.673 14.327 32 32 32 10.122 0 19.146-4.699 25.009-12.035l0.049-0.064zM409.6 820.64c-93.479-3.804-168.285-78.666-171.989-171.815l-0.011-0.345c-0.008-0.262-0.012-0.571-0.012-0.88 0-17.68 14.332-32.012 32.012-32.012 17.37 0 31.509 13.835 31.999 31.087l0.001 0.045c2.363 59.677 50.098 107.468 109.533 109.913l0.227 0.007c0.954 0.029 2.075 0.045 3.201 0.045 62.498 0 113.192-50.541 113.439-112.982v-0.024c-0.044-45.959-27.451-85.505-66.805-103.232l-0.715-0.288c-46.155-21.332-77.605-67.232-77.605-120.477 0-0.395 0.002-0.789 0.005-1.183v0.060-32.96c0-17.673 14.327-32 32-32s32 14.327 32 32v0 32.96c-0.005 0.322-0.009 0.702-0.009 1.083 0 27.283 15.992 50.83 39.114 61.78l0.415 0.177c62.676 28.253 105.53 90.154 105.6 162.071v0.009c-0.14 97.803-79.457 177.034-177.28 177.034-1.8 0-3.595-0.027-5.382-0.080l0.262 0.006zM446.72 294.4c0-17.673-14.327-32-32-32s-32 14.327-32 32c0 17.673 14.327 32 32 32s32-14.327 32-32z" />
<glyph unicode="&#xe923;" glyph-name="files-and-folders" d="M106.665 789.333c0 96.097 74.569 170.667 170.667 170.667h426.668c96.098 0 170.667-74.569 170.667-170.667v-213.333c0-23.564-19.102-42.667-42.667-42.667s-42.667 19.102-42.667 42.667v213.333c0 48.969-36.365 85.333-85.333 85.333h-426.668c-48.969 0-85.333-36.364-85.333-85.333v-682.667c0-48.969 36.364-85.333 85.333-85.333h42.667c23.564 0 42.667-19.102 42.667-42.667s-19.103-42.667-42.667-42.667h-42.667c-96.098 0-170.667 74.569-170.667 170.667zM277.332 746.667c0 23.564 19.102 42.667 42.667 42.667h341.335c23.565 0 42.667-19.103 42.667-42.667s-19.102-42.667-42.667-42.667h-341.335c-23.564 0-42.667 19.103-42.667 42.667zM319.999 618.667c-23.564 0-42.667-19.102-42.667-42.667s19.102-42.667 42.667-42.667h170.668c23.565 0 42.667 19.102 42.667 42.667s-19.102 42.667-42.667 42.667zM362.665 277.333c0 117.82 95.511 213.333 213.335 213.333 117.82 0 213.333-95.514 213.333-213.333 0-43.499-13.022-83.959-35.375-117.692 0.521-0.478 1.037-0.964 1.54-1.472l149.338-149.325c16.666-16.661 16.666-43.678 0-60.339-16.661-16.661-43.678-16.661-60.339 0l-149.333 149.325c-0.508 0.503-0.998 1.020-1.472 1.545-33.732-22.357-74.193-35.375-117.692-35.375-117.824 0-213.335 95.514-213.335 213.333zM576 405.333c-70.694 0-128-57.306-128-128s57.306-128 128-128c70.69 0 128 57.306 128 128s-57.31 128-128 128z" />
<glyph unicode="&#xe924;" glyph-name="data-analysis" d="M713.788 396.8c-51.2-105.412-159.624-180.706-286.118-180.706-171.671 0-316.235 141.553-316.235 316.235 0 171.671 138.541 316.235 316.235 316.235 84.329 0 165.647-33.129 225.882-93.365 36.141-36.141 60.235-78.306 75.294-123.482l69.271 69.271c-21.082 45.176-48.188 84.329-84.329 120.471-78.306 75.294-180.706 120.471-289.129 120.471-222.871-3.012-406.588-186.729-406.588-409.6 0-225.882 183.718-406.588 406.588-406.588 210.824 0 379.482 159.624 403.576 355.388-45.176-42.165-63.247-84.329-114.447-84.329zM969.788-9.788c-45.176-45.176-120.471-45.176-168.659 0l-138.541 138.541c33.129 21.082 66.259 45.176 93.365 72.282 30.118 30.118 54.212 60.235 75.294 96.376l138.541-138.541c45.176-45.176 48.188-120.471 0-168.659zM942.682 676.894l-57.224-57.224-156.612-153.6c-12.047-12.047-30.118-12.047-42.165 0l-99.388 99.388-156.612-156.612c-12.047-12.047-30.118-12.047-42.165 0l-69.271 69.271-99.388-99.388c-12.047 15.059-24.094 36.141-33.129 54.212l111.435 105.412c12.047 12.047 30.118 12.047 42.165 0l69.271-69.271 156.612 156.612c12.047 12.047 30.118 12.047 42.165 0l99.388-99.388 192.753 192.753c12.047 12.047 30.118 12.047 42.165 0s12.047-30.118 0-42.165z" />
<glyph unicode="&#xe925;" glyph-name="solution" d="M826.104 469.623c0 173.196-140.906 314.105-314.105 314.105s-314.103-140.908-314.103-314.105c0-106.212 54.228-205.484 142.644-263.215v-98.956c0-94.54 76.914-171.452 171.454-171.452s171.454 76.914 171.454 171.452v55.58c0 0.014-0.002 43.372-0.002 43.372 88.426 57.732 142.656 157.002 142.656 263.219zM622.901 107.45c0-61.152-49.75-110.9-110.902-110.9s-110.902 49.75-110.902 110.9v25.308h221.804v-25.308zM638.095 249.597c-9.4-5.4-15.194-15.412-15.194-26.254v-30.034h-80.628v156.558c39.312 12.79 67.816 49.764 67.816 93.288 0 16.72-13.556 30.276-30.276 30.276s-30.276-13.556-30.276-30.276c0-20.698-16.84-37.54-37.538-37.54s-37.54 16.84-37.54 37.54c0 16.72-13.556 30.276-30.276 30.276s-30.276-13.556-30.276-30.276c0-43.522 28.502-80.498 67.816-93.288v-156.558h-80.622v30.036c0 10.84-5.794 20.852-15.194 26.252-78.618 45.166-127.454 129.474-127.454 220.026 0 139.808 113.742 253.552 253.552 253.552s253.552-113.742 253.552-253.552c-0.004-90.554-48.844-174.864-127.462-220.026zM511.999 960c-16.72 0-30.276-13.556-30.276-30.276v-53.15c0-16.72 13.556-30.276 30.276-30.276s30.276 13.556 30.276 30.276v53.15c0 16.72-13.554 30.276-30.276 30.276zM426.835 868.808l-18.792 49.72c-5.912 15.64-23.39 23.526-39.024 17.616-15.64-5.912-23.528-23.384-17.616-39.024l18.79-49.72c4.58-12.116 16.096-19.58 28.326-19.58 3.556 0 7.176 0.632 10.7 1.964 15.64 5.912 23.528 23.384 17.616 39.024zM654.979 936.144c-15.642 5.914-33.112-1.978-39.024-17.618l-18.792-49.72c-5.91-15.638 1.978-33.11 17.618-39.022 3.524-1.332 7.142-1.964 10.698-1.964 12.232 0 23.748 7.464 28.326 19.58l18.792 49.72c5.912 15.642-1.976 33.112-17.618 39.024z" />
<glyph unicode="&#xe926;" glyph-name="paper-plane" d="M874.667 106.667c-3.499 0-6.997 0.597-10.325 1.707l-842.667 288c-12.117 4.181-20.565 15.104-21.589 27.861-0.939 12.757 5.76 24.875 17.067 30.805l960 501.333c10.709 5.504 23.637 4.651 33.365-2.304 9.813-6.997 14.891-18.859 13.141-30.805l-117.333-789.333c-1.408-9.387-6.912-17.664-15.061-22.613-5.035-3.072-10.795-4.651-16.597-4.651zM112.896 432.853l735.744-251.477 102.443 689.152zM405.333-21.333c-3.328 0-6.699 0.512-9.941 1.579-13.184 4.352-22.059 16.597-22.059 30.421v288c0 8.064 3.072 15.915 8.576 21.845l586.667 629.333c12.032 12.971 32.384 13.611 45.269 1.579 12.928-12.032 13.611-32.299 1.579-45.269l-578.091-620.075v-177.835l106.795 145.365c10.453 14.165 30.507 17.323 44.757 6.827 14.251-10.453 17.28-30.507 6.827-44.757l-164.565-224c-6.187-8.32-15.829-13.013-25.813-13.013z" />
<glyph unicode="&#xe927;" glyph-name="label" d="M990.394 924.94c-21.973 21.973-51.701 34.898-81.429 34.898l-339.933-1.293c-51.701-3.878-102.109-27.143-138.3-63.334l-396.804-394.219c-45.238-45.238-45.238-120.204 0-165.443l365.784-365.784c21.973-21.973 51.701-33.606 84.014-33.606s60.749 11.633 81.429 34.898l392.926 392.926c37.483 36.191 60.749 85.306 64.626 138.3v1.293l1.293 337.348c0 32.313-11.633 62.041-33.606 84.014zM647.876 484.191c-55.578 0-100.817 45.238-100.817 100.817s45.238 100.817 100.817 100.817 100.817-45.238 100.817-100.817-45.238-100.817-100.817-100.817z" />
<glyph unicode="&#xe928;" glyph-name="share" d="M948.664 789.336c0-76.586-62.078-138.672-138.664-138.672s-138.664 62.086-138.664 138.672c0 76.578 62.078 138.664 138.664 138.664s138.664-62.086 138.664-138.664zM810 618.664c-94.125 0-170.664 76.547-170.664 170.672 0 94.117 76.539 170.664 170.664 170.664s170.664-76.547 170.664-170.664c0-94.125-76.539-170.672-170.664-170.672zM810 896c-58.836 0-106.664-47.875-106.664-106.664 0-58.797 47.828-106.672 106.664-106.672s106.664 47.875 106.664 106.672c0 58.789-47.828 106.664-106.664 106.664zM948.664 106.664c0-76.578-62.078-138.664-138.664-138.664s-138.664 62.086-138.664 138.664c0 76.586 62.078 138.672 138.664 138.672s138.664-62.086 138.664-138.672zM810-64c-94.125 0-170.664 76.547-170.664 170.664 0 94.125 76.539 170.672 170.664 170.672s170.664-76.547 170.664-170.672c0-94.117-76.539-170.664-170.664-170.664zM810 213.336c-58.836 0-106.664-47.875-106.664-106.672 0-58.789 47.828-106.664 106.664-106.664s106.664 47.875 106.664 106.664c0 58.797-47.828 106.672-106.664 106.672zM351.336 448c0-76.586-62.086-138.664-138.672-138.664-76.578 0-138.664 62.078-138.664 138.664s62.086 138.664 138.664 138.664c76.586 0 138.672-62.078 138.672-138.664zM212.664 277.336c-94.117 0-170.664 76.539-170.664 170.664s76.547 170.664 170.664 170.664c94.125 0 170.672-76.539 170.672-170.664s-76.547-170.664-170.672-170.664zM212.664 554.664c-58.836 0-106.664-47.867-106.664-106.664s47.828-106.664 106.664-106.664c58.844 0 106.672 47.867 106.672 106.664s-47.828 106.664-106.672 106.664zM313.406 468.477c-14.852 0-29.273 7.727-37.125 21.547-11.648 20.438-4.477 46.508 15.961 58.203l395.898 225.703c20.438 11.734 46.508 4.563 58.203-15.953 11.648-20.438 4.477-46.508-15.961-58.203l-395.906-225.703c-6.656-3.797-13.906-5.594-21.070-5.594zM709.266 116.477c-7.172 0-14.422 1.797-21.078 5.594l-395.906 225.703c-20.438 11.648-27.602 37.719-15.953 58.203 11.602 20.477 37.711 27.688 58.195 15.953l395.906-225.703c20.438-11.648 27.602-37.719 15.953-58.203-7.891-13.82-22.313-21.547-37.117-21.547z" />
<glyph unicode="&#xe929;" glyph-name="back" d="M245.060 411.451l460.488-460.335c20.206-20.155 52.943-20.155 73.2 0 20.206 20.155 20.206 52.892 0 73.047l-423.963 423.81 423.912 423.81c20.206 20.155 20.206 52.892 0 73.098-20.206 20.155-52.994 20.155-73.2 0l-460.488-460.331c-19.896-19.947-19.896-53.198 0.051-73.098z" />
<glyph unicode="&#xe92a;" glyph-name="arrow-point-to-right" d="M782.857 397.307l-440.304-440.29c-28.009-28.022-73.42-28.022-101.415 0-27.997 27.997-27.997 73.406 0 101.401l389.601 389.589-389.589 389.576c-27.997 28.009-27.997 73.413 0 101.41 27.997 28.009 73.406 28.009 101.415 0l440.304-440.297c13.999-14.005 20.99-32.342 20.99-50.687 0-18.354-7.005-36.704-21.001-50.703z" />
<glyph unicode="&#xe92b;" glyph-name="play-1" d="M839.851 543.087l-568.792 389.393c-26.268 17.995-52.735 27.52-74.734 27.52-42.531 0-68.84-34.134-68.84-91.27v-841.592c0-57.070 26.276-91.138 68.708-91.138 22.032 0 48.076 9.532 74.402 27.578l569.057 389.385c36.596 25.083 56.863 58.835 56.863 95.083 0.008 36.223-20.026 69.968-56.664 95.042z" />
<glyph unicode="&#xe92c;" glyph-name="rocket" d="M1003.008 959.872c-199.893 3.584-427.861-100.907-572.16-262.997-137.899-2.603-272.171-59.136-371.029-157.995-5.76-5.675-7.808-14.165-5.291-21.845 2.56-7.723 9.216-13.312 17.237-14.464l164.437-23.552-20.309-22.741c-7.552-8.448-7.168-21.291 0.853-29.312l274.219-274.219c4.139-4.139 9.6-6.229 15.104-6.229 5.077 0 10.155 1.792 14.208 5.419l22.741 20.309 23.552-164.437c1.152-8.021 7.467-13.909 15.104-16.469 1.963-0.64 4.011-0.939 6.101-0.939 6.059 0 12.245 2.645 16.512 6.869 97.493 97.493 154.027 231.765 156.629 369.664 162.261 144.597 267.605 372.48 262.955 572.117-0.299 11.349-9.472 20.523-20.864 20.821zM806.4 591.573c-20.779-20.779-48.085-31.189-75.435-31.189s-54.656 10.411-75.435 31.189c-41.557 41.6-41.557 109.269 0 150.869 41.6 41.6 109.269 41.6 150.869 0s41.6-109.312 0-150.869zM116.224 238.72c-45.653-45.653-108.331-251.904-115.328-275.243-2.261-7.509-0.171-15.659 5.333-21.205 4.096-4.096 9.515-6.272 15.104-6.272 2.048 0 4.096 0.299 6.144 0.896 23.339 6.997 229.589 69.675 275.243 115.328 51.413 51.413 51.413 135.083 0 186.496-51.456 51.413-135.083 51.371-186.496 0z" />
<glyph unicode="&#xe92d;" glyph-name="diamond" d="M753.644 653.71l-190.84-604.328 461.196 604.328zM148.672 867.474l-146.508-175.81h249.064zM875.328 867.474l-102.556-175.81h249.064zM270.356 653.71h-270.356l461.196-604.328zM557.812 881.442l177.936-177.936 103.788 177.936zM184.464 881.442l103.788-177.936 177.936 177.936zM310.152 653.71l201.848-639.152 201.848 639.152zM512 873.584l-181.92-181.92h363.84z" />
<glyph unicode="&#xe92e;" glyph-name="writing-tool" d="M40.96 812.544v-724.992c0-69.632 57.344-126.976 126.976-126.976h544.768c69.632 0 126.976 57.344 126.976 126.976v176.128l-28.672-28.672c-28.672-28.672-69.632-49.152-110.592-61.44l-86.016-16.384c-36.864-8.192-77.824 4.096-98.304 32.768-20.48 24.576-28.672 53.248-20.48 86.016l20.48 90.112c8.192 40.96 28.672 77.824 61.44 110.592l204.8 204.8c16.384 16.384 40.96 32.768 61.44 40.96v90.112c0 69.632-57.344 126.976-126.976 126.976h-548.864c-69.632 0-126.976-57.344-126.976-126.976zM241.664 796.16h393.216c24.576 0 40.96-16.384 40.96-40.96s-16.384-40.96-40.96-40.96h-393.216c-24.576 0-40.96 16.384-40.96 40.96 0 20.48 20.48 40.96 40.96 40.96zM241.664 628.224h229.376c24.576 0 40.96-16.384 40.96-40.96s-16.384-40.96-40.96-40.96h-229.376c-24.576 0-40.96 16.384-40.96 40.96s20.48 40.96 40.96 40.96zM958.464 620.032c-32.768 32.768-90.112 32.768-122.88 0l-204.8-204.8c-20.48-20.48-32.768-40.96-36.864-69.632l-20.48-86.016c-4.096-12.288 8.192-24.576 20.48-20.48l90.112 20.48c24.576 4.096 49.152 20.48 69.632 36.864l204.8 204.8c32.768 32.768 32.768 86.016 0 118.784z" />
<glyph unicode="&#xe92f;" glyph-name="growth-graph" d="M20.48 17.92c0-20.48 16.384-36.864 36.864-36.864h114.688c16.384 4.096 32.768 20.48 32.768 36.864v90.112c0 20.48-16.384 36.864-36.864 36.864h-110.592c-20.48 0-36.864-16.384-36.864-36.864zM434.176-14.848c20.48 0 36.864 16.384 36.864 36.864v212.992c0 20.48-16.384 36.864-36.864 36.864h-114.688c-20.48 0-36.864-16.384-36.864-36.864v-217.088c0-20.48 16.384-36.864 36.864-36.864h114.688zM585.728-14.848h114.688c20.48 0 36.864 16.384 36.864 36.864v331.776c0 20.48-16.384 36.864-36.864 36.864h-114.688c-20.48 0-36.864-16.384-36.864-36.864v-335.872c4.096-16.384 20.48-32.768 36.864-32.768zM1003.52 554.496c0 20.48-16.384 36.864-36.864 36.864h-114.688c-20.48 0-36.864-16.384-36.864-36.864v-532.48c0-20.48 16.384-36.864 36.864-36.864h114.688c20.48 0 36.864 16.384 36.864 36.864zM843.776 722.432c8.192-8.192 16.384-8.192 24.576-8.192 4.096 0 12.288 0 16.384 4.096 16.384 4.096 28.672 20.48 28.672 36.864l8.192 110.592c0 16.384-8.192 28.672-16.384 36.864-12.288 8.192-28.672 12.288-40.96 4.096l-102.4-36.864c-16.384-4.096-24.576-20.48-28.672-36.864s4.096-32.768 16.384-40.96l16.384-12.288c-139.264-163.84-401.408-344.064-630.784-344.064-24.576 0-40.96-16.384-40.96-40.96s16.384-40.96 40.96-40.96c258.048 0 544.768 196.608 696.32 380.928z" />
<glyph unicode="&#xe930;" glyph-name="download" d="M481.83 119.164c0.008-0.008 0.016-0.014 0.024-0.022 0.986-0.984 2.024-1.918 3.102-2.804 0.494-0.406 1.016-0.758 1.524-1.14 0.606-0.454 1.2-0.924 1.83-1.346 0.608-0.406 1.238-0.758 1.862-1.13 0.572-0.342 1.13-0.7 1.718-1.014 0.636-0.34 1.29-0.628 1.94-0.934 0.612-0.29 1.216-0.596 1.844-0.856 0.63-0.26 1.274-0.472 1.914-0.7 0.674-0.242 1.338-0.5 2.026-0.708 0.64-0.194 1.29-0.336 1.938-0.498 0.702-0.178 1.396-0.374 2.112-0.516 0.75-0.148 1.506-0.236 2.26-0.344 0.622-0.088 1.236-0.208 1.866-0.27 2.8-0.276 5.622-0.276 8.422 0 0.63 0.062 1.244 0.18 1.866 0.27 0.754 0.108 1.51 0.196 2.26 0.344 0.716 0.142 1.41 0.338 2.112 0.516 0.646 0.162 1.298 0.304 1.938 0.498 0.688 0.208 1.354 0.466 2.026 0.708 0.64 0.23 1.284 0.44 1.914 0.7 0.628 0.26 1.232 0.566 1.844 0.856 0.65 0.306 1.304 0.594 1.94 0.934 0.588 0.314 1.146 0.674 1.718 1.014 0.624 0.372 1.254 0.724 1.862 1.13 0.63 0.422 1.224 0.892 1.83 1.346 0.508 0.38 1.030 0.734 1.524 1.14 1.078 0.886 2.116 1.818 3.102 2.804 0.008 0.008 0.016 0.014 0.024 0.022l298.666 298.666c16.662 16.662 16.662 43.678 0 60.34s-43.678 16.662-60.34 0l-225.832-225.83v664.994c0 23.564-19.102 42.666-42.666 42.666s-42.666-19.102-42.666-42.666v-664.994l-225.83 225.83c-16.662 16.662-43.678 16.662-60.34 0s-16.662-43.678 0-60.34l298.666-298.666zM810.666 21.334h-597.332c-23.564 0-42.666-19.102-42.666-42.666s19.102-42.668 42.666-42.668h597.334c23.564 0 42.666 19.102 42.666 42.666s-19.104 42.668-42.668 42.668z" />
<glyph unicode="&#xe931;" d="M256 960c-35.2 0-64-28.8-64-64v-896c0-35.2 28.8-64 64-64h640c35.2 0 64 28.8 64 64v704l-256 256h-448z" />
<glyph unicode="&#xe932;" d="M768 704h192l-256 256v-192c0-35.2 28.8-64 64-64z" />
<glyph unicode="&#xe933;" d="M960 512l-192 192h192z" />
<glyph unicode="&#xe934;" d="M832 128c0-17.6-14.4-32-32-32h-704c-17.6 0-32 14.4-32 32v320c0 17.6 14.4 32 32 32h704c17.6 0 32-14.4 32-32v-320z" />
<glyph unicode="&#xe935;" d="M203.488 353.696c0 8.448 6.656 17.664 17.376 17.664h59.104c33.28 0 63.232-22.272 63.232-64.96 0-40.448-29.952-62.976-63.232-62.976h-42.72v-33.792c0-11.264-7.168-17.632-16.384-17.632-8.448 0-17.376 6.368-17.376 17.632v144.064zM237.248 339.136v-63.744h42.72c17.152 0 30.72 15.136 30.72 31.008 0 17.888-13.568 32.736-30.72 32.736h-42.72z" />
<glyph unicode="&#xe936;" d="M393.312 192c-8.448 0-17.664 4.608-17.664 15.84v145.344c0 9.184 9.216 15.872 17.664 15.872h58.592c116.928 0 114.368-177.056 2.304-177.056h-60.896zM409.44 337.824v-114.624h42.464c69.088 0 72.16 114.624 0 114.624h-42.464z" />
<glyph unicode="&#xe937;" d="M607.744 335.776v-40.672h65.248c9.216 0 18.432-9.216 18.432-18.144 0-8.448-9.216-15.36-18.432-15.36h-65.248v-53.728c0-8.96-6.368-15.84-15.328-15.84-11.264 0-18.144 6.88-18.144 15.84v145.344c0 9.184 6.912 15.872 18.144 15.872h89.824c11.264 0 17.92-6.688 17.92-15.872 0-8.192-6.656-17.408-17.92-17.408l-74.496-0.032z" />
<glyph unicode="&#xe938;" d="M800 96h-608v-32h608c17.6 0 32 14.4 32 32v32c0-17.6-14.4-32-32-32z" />
<glyph unicode="&#xe939;" d="M256 960c-35.2 0-64-28.8-64-64v-896c0-35.2 28.8-64 64-64h640c35.2 0 64 28.8 64 64v704l-256 256h-448z" />
<glyph unicode="&#xe93a;" d="M768 704h192l-256 256v-192c0-35.2 28.8-64 64-64z" />
<glyph unicode="&#xe93b;" d="M960 512l-192 192h192z" />
<glyph unicode="&#xe93c;" d="M832 128c0-17.6-14.4-32-32-32h-704c-17.6 0-32 14.4-32 32v320c0 17.6 14.4 32 32 32h704c17.6 0 32-14.4 32-32v-320z" />
<glyph unicode="&#xe93d;" d="M185.152 192c-8.448 0-17.664 4.64-17.664 15.872v145.312c0 9.216 9.216 15.872 17.664 15.872h58.592c116.928 0 114.336-177.056 2.272-177.056h-60.864zM201.28 337.856v-114.624h42.464c69.088 0 72.128 114.624 0 114.624h-42.464z" />
<glyph unicode="&#xe93e;" d="M456 189.44c-47.328-2.048-96.48 29.44-96.48 92.128 0 62.944 49.12 93.888 96.48 93.888 44.768-2.272 91.584-33.248 91.584-93.888 0-60.672-46.816-92.128-91.584-92.128zM453.184 342.176c-28.672 0-59.872-20.224-59.872-60.64 0-40.192 31.232-60.672 59.872-60.672 29.44 0 60.896 20.48 60.896 60.672 0 40.448-31.456 60.64-60.896 60.64z" />
<glyph unicode="&#xe93f;" d="M577.696 281.824c0 49.376 30.976 91.84 89.824 91.84 22.272 0 39.936-6.656 58.592-22.784 6.912-6.368 7.68-17.632 0.768-24.8-6.912-6.112-17.408-5.376-23.552 0.768-10.464 11.008-21.216 14.048-35.808 14.048-39.392 0-58.304-27.904-58.304-59.104 0-31.744 18.656-60.896 58.304-60.896 14.592 0 28.16 5.92 39.936 16.384 7.904 6.144 18.912 3.104 23.52-3.072 4.096-5.632 6.112-15.104-2.816-24.032-17.92-16.672-39.392-20-60.672-20-61.888 0-89.792 42.272-89.792 91.648z" />
<glyph unicode="&#xe940;" d="M800 96h-608v-32h608c17.6 0 32 14.4 32 32v32c0-17.6-14.4-32-32-32z" />
<glyph unicode="&#xe941;" glyph-name="telephone" d="M778.514 282.604c-33.454 33.028-75.219 33.028-108.46 0-25.357-25.144-50.714-50.288-75.645-75.858-6.819-7.032-12.572-8.523-20.882-3.836-16.408 8.95-33.88 16.194-49.649 25.996-73.514 46.239-135.096 105.69-189.645 172.599-27.062 33.241-51.14 68.826-67.974 108.886-3.409 8.097-2.77 13.424 3.836 20.030 25.357 24.505 50.075 49.649 75.006 74.793 34.733 34.946 34.733 75.858-0.213 111.017-19.817 20.030-39.634 39.634-59.451 59.664-20.456 20.456-40.699 41.125-61.368 61.368-33.454 32.602-75.219 32.602-108.46-0.213-25.57-25.144-50.075-50.927-76.071-75.645-24.079-22.8-36.224-50.714-38.781-83.316-4.049-53.058 8.95-103.133 27.275-151.929 37.503-101.002 94.61-190.711 163.862-272.962 93.544-111.23 205.201-199.234 335.822-262.733 58.811-28.553 119.754-50.501 186.023-54.124 45.6-2.557 85.234 8.95 116.984 44.535 21.735 24.292 46.239 46.452 69.253 69.679 34.094 34.52 34.307 76.284 0.426 110.378-40.486 40.699-81.185 81.185-121.884 121.671zM737.814 452.432l78.628 13.424c-12.359 72.236-46.452 137.653-98.232 189.645-54.763 54.763-124.015 89.283-200.3 99.937l-11.080-79.054c59.024-8.31 112.722-34.946 155.126-77.35 40.060-40.060 66.269-90.774 75.858-146.602zM860.764 794.22c-90.774 90.774-205.627 148.094-332.412 165.78l-11.080-79.054c109.526-15.342 208.823-64.991 287.238-143.193 74.367-74.367 123.163-168.337 140.849-271.683l78.628 13.424c-20.669 119.754-77.137 228.427-163.223 314.726z" />
<glyph unicode="&#xe942;" glyph-name="customer" d="M512 546c95.944 0 174 78.056 174 174s-78.056 174-174 174-174-78.056-174-174 78.056-174 174-174zM512 834c62.86 0 114-51.14 114-114s-51.14-114-114-114-114 51.14-114 114 51.14 114 114 114zM864 546c60.654 0 110 49.346 110 110s-49.346 110-110 110-110-49.346-110-110 49.346-110 110-110zM864 706c27.57 0 50-22.43 50-50s-22.43-50-50-50-50 22.43-50 50 22.43 50 50 50zM888.2 478h-46.4c-54.678 0-101.878-32.304-123.386-78.704-44.282 48.34-107.888 78.704-178.456 78.704h-55.914c-70.568 0-134.174-30.364-178.456-78.704-21.51 46.4-68.71 78.704-123.388 78.704h-46.4c-74.88 0-135.8-60.552-135.8-134.98v-218.42c0-32.312 26.388-58.6 58.824-58.6h183.454c3.076-35.8 33.18-64 69.766-64h399.914c36.584 0 66.688 28.2 69.766 64h181.358c33.592 0 60.92 27.22 60.92 60.68v216.34c-0.002 74.428-60.922 134.98-135.802 134.98zM60 343.020c0 41.344 34.004 74.98 75.8 74.98h46.4c41.796 0 75.8-33.636 75.8-74.98v-20.542c-20.174-52.528-16-84.008-16-196.478h-182zM722 72.042c0-5.538-4.504-10.042-10.042-10.042h-399.916c-5.538 0-10.042 4.506-10.042 10.042v163.914c0 100.38 81.664 182.044 182.042 182.044h55.914c100.38 0 182.044-81.664 182.044-182.042zM964 126.68c0-1.034 11.184-0.68-182-0.68 0 113.302 4.142 144.036-16 196.478v20.542c0 41.344 34.004 74.98 75.8 74.98h46.4c41.796 0 75.8-33.636 75.8-74.98zM160 546c60.654 0 110 49.346 110 110s-49.346 110-110 110-110-49.346-110-110 49.346-110 110-110zM160 706c27.57 0 50-22.43 50-50s-22.43-50-50-50-50 22.43-50 50 22.43 50 50 50z" />
<glyph unicode="&#xe943;" glyph-name="calendar-1" d="M812 540c0-22.091-17.909-40-40-40s-40 17.909-40 40c0 22.091 17.909 40 40 40s40-17.909 40-40zM864 880h-52v40c0 22.092-17.908 40-40 40s-40-17.908-40-40v-40h-182v40c0 22.092-17.908 40-40 40s-40-17.908-40-40v-40h-180v40c0 22.092-17.908 40-40 40s-40-17.908-40-40v-40h-50c-88.224 0-160-71.776-160-160v-624c0-88.224 71.776-160 160-160h306c22.092 0 40 17.908 40 40s-17.908 40-40 40h-306c-44.112 0-80 35.888-80 80v624c0 44.112 35.888 80 80 80h50v-40c0-22.092 17.908-40 40-40s40 17.908 40 40v40h180v-40c0-22.092 17.908-40 40-40s40 17.908 40 40v40h182v-40c0-22.092 17.908-40 40-40s40 17.908 40 40v40h52c44.112 0 80-35.888 80-80v-228c0-22.092 17.908-40 40-40s40 17.908 40 40v228c0 88.224-71.776 160-160 160zM782 420c-133.44 0-242-108.56-242-242s108.56-242 242-242 242 108.56 242 242-108.56 242-242 242zM782 16c-89.326 0-162 72.672-162 162s72.674 162 162 162c89.326 0 162-72.672 162-162s-72.674-162-162-162zM840 218h-18v42c0 22.092-17.908 40-40 40s-40-17.908-40-40v-82c0-22.092 17.908-40 40-40h58c22.092 0 40 17.908 40 40s-17.908 40-40 40zM638 540c0-22.091-17.909-40-40-40s-40 17.909-40 40c0 22.091 17.909 40 40 40s40-17.909 40-40zM464 366c0-22.091-17.909-40-40-40s-40 17.909-40 40c0 22.091 17.909 40 40 40s40-17.909 40-40zM290 540c0-22.091-17.909-40-40-40s-40 17.909-40 40c0 22.091 17.909 40 40 40s40-17.909 40-40zM290 366c0-22.091-17.909-40-40-40s-40 17.909-40 40c0 22.091 17.909 40 40 40s40-17.909 40-40zM290 192c0-22.091-17.909-40-40-40s-40 17.909-40 40c0 22.091 17.909 40 40 40s40-17.909 40-40zM464 192c0-22.091-17.909-40-40-40s-40 17.909-40 40c0 22.091 17.909 40 40 40s40-17.909 40-40zM464 540c0-22.091-17.909-40-40-40s-40 17.909-40 40c0 22.091 17.909 40 40 40s40-17.909 40-40z" />
<glyph unicode="&#xe944;" glyph-name="tag" d="M913.763 959.999h-388.616c-7.953 0-15.586-3.164-21.211-8.789l-471.71-471.694c-42.969-42.984-42.969-112.914 0-155.882l355.397-355.39c20.75-20.75 48.43-32.18 77.929-32.187h0.008c29.508 0 57.187 11.437 77.945 32.195l471.694 471.702c5.625 5.625 8.789 13.258 8.789 21.211l0.008 388.616c-0.008 60.773-49.461 110.218-110.234 110.218zM963.989 473.586l-462.913-462.913c-9.422-9.43-22.039-14.617-35.516-14.617-13.484 0-26.094 5.187-35.516 14.609l-355.397 355.39c-19.578 19.578-19.578 51.453 0 71.039l462.921 462.905h376.194c27.695 0 50.234-22.531 50.234-50.226zM759.568 789.843c-25.18 0-48.851-9.812-66.656-27.617-17.805-17.797-27.609-41.469-27.609-66.648s9.805-48.851 27.609-66.656c17.805-17.805 41.476-27.609 66.656-27.609 25.172 0 48.844 9.805 66.648 27.609s27.609 41.476 27.609 66.656c0 25.18-9.805 48.851-27.601 66.648-17.805 17.805-41.476 27.617-66.656 27.617zM783.795 671.351c-6.469-6.477-15.078-10.039-24.226-10.039-9.156 0-17.758 3.562-24.226 10.039-6.477 6.469-10.039 15.078-10.039 24.226s3.562 17.758 10.039 24.226c6.469 6.477 15.078 10.039 24.226 10.039s17.75-3.562 24.226-10.039c6.477-6.469 10.039-15.078 10.039-24.226s-3.57-17.758-10.039-24.226z" />
<glyph unicode="&#xe945;" glyph-name="phone-call" d="M961.12 236.8c-2.624 2.080-193.12 139.392-245.408 129.536-24.96-4.416-39.232-21.44-67.872-55.52-4.608-5.504-15.68-18.688-24.288-28.064-20.871 6.849-38.344 14.128-55.141 22.553l2.309-1.049c-88.522 43.761-158.511 113.75-201.126 199.715l-1.146 2.557c-7.387 14.499-14.666 31.971-20.69 50.018l-0.814 2.814c9.408 8.64 22.592 19.712 28.224 24.448 33.92 28.48 50.976 42.752 55.392 67.776 9.056 51.84-128.16 243.648-129.6 245.376-12.389 17.537-31.943 29.304-54.31 31.025l-0.25 0.015c-55.616 0-214.4-205.984-214.4-240.672 0-2.016 2.912-206.944 255.616-464 256.8-252.416 461.696-255.328 463.712-255.328 34.72 0 240.672 158.784 240.672 214.4-1.717 22.539-13.423 42.033-30.653 54.247l-0.227 0.153z" />
<glyph unicode="&#xe946;" glyph-name="paper-plane-1" d="M373.333 208.555v-197.888c0-13.824 8.875-26.069 22.016-30.421 3.285-1.067 6.656-1.579 9.984-1.579 9.984 0 19.627 4.693 25.771 13.056l115.755 157.525zM1010.56 954.069c-9.813 6.955-22.699 7.893-33.365 2.304l-960-501.333c-11.349-5.931-18.048-18.048-17.109-30.805 0.981-12.8 9.472-23.723 21.547-27.861l266.88-91.221 568.363 485.973-439.808-529.877 447.275-152.875c3.328-1.109 6.827-1.707 10.325-1.707 5.803 0 11.563 1.579 16.64 4.651 8.107 4.949 13.611 13.269 15.019 22.613l117.333 789.333c1.749 11.947-3.285 23.808-13.099 30.805z" />
<glyph unicode="&#xe947;" glyph-name="place" d="M512 960c-216.15 0-392-175.85-392-392 0-69.188 18.28-137.21 52.862-196.71 8.062-13.872 17.074-27.39 26.79-40.18l295.316-395.11h34.062l295.318 395.108c9.714 12.792 18.726 26.308 26.79 40.18 34.582 59.502 52.862 127.524 52.862 196.712 0 216.15-175.85 392-392 392zM512 438c-71.682 0-130 58.318-130 130s58.318 130 130 130 130-58.318 130-130-58.318-130-130-130z" />
<glyph unicode="&#xe948;" glyph-name="close" d="M73.44 9.44c5.792-5.798 13.797-9.385 22.64-9.385s16.848 3.587 22.64 9.385v0l393.28 393.28 393.44-393.28c5.794-5.794 13.799-9.378 22.64-9.378 17.683 0 32.018 14.335 32.018 32.018 0 8.841-3.584 16.846-9.378 22.64l-393.44 393.28 393.28 393.44c5.794 5.794 9.378 13.799 9.378 22.64 0 17.683-14.335 32.018-32.018 32.018-8.841 0-16.846-3.584-22.64-9.378v0l-393.28-393.44-393.44 393.28c-5.559 4.783-12.847 7.695-20.815 7.695-17.673 0-32-14.327-32-32 0-7.968 2.912-15.255 7.73-20.857l-0.035 0.042 393.28-393.44-393.28-393.44c-5.751-5.784-9.305-13.757-9.305-22.56s3.555-16.776 9.307-22.562l-0.002 0.002z" />
<glyph unicode="&#xe949;" glyph-name="check" d="M1012.502 824.863c-15.715 16.272-41.645 16.723-57.917 1.008-0.341-0.329-0.677-0.665-1.008-1.008l-667.36-667.363-216.801 216.801c-16.272 15.715-42.202 15.264-57.917-1.008-15.331-15.874-15.331-41.038 0-56.911l245.76-245.76c15.996-15.991 41.923-15.991 57.917 0l696.319 696.321c16.272 15.718 16.723 41.647 1.008 57.919z" />
<glyph unicode="&#xe94a;" glyph-name="diamond-1" d="M786.124 699.898v186.394h-198.382zM283.618 660.546h456.764l-228.382 214.582zM770.268 600.546h-516.536l258.268-590.838zM237.876 699.898l198.382 186.394h-198.382zM177.876 660.546v180.56l-171.376-180.56zM846.124 660.546h171.376l-171.376 180.56zM835.75 600.546l-210.644-481.886 398.894 481.886zM188.25 600.546h-188.25l398.894-481.886z" />
<glyph unicode="&#xe94b;" glyph-name="like" d="M0 613.32h240v-633.44h-240v633.44zM1002.184 348.566c0 22.85-7.582 43.96-20.358 60.956 25.524 18.49 42.174 48.512 42.174 82.362 0 56.054-45.606 101.658-101.66 101.658h-231.090l32.16 111.086v53.226c0 98.078-79.794 177.872-177.872 177.872-23.782 0-43.128-19.348-43.128-43.128v-118c-16.038-25.668-105.102-125.608-202.41-230.316v-524.98l83.036-31.138c49.354-18.508 101.106-27.892 153.818-27.892h320.038c56.054 0 101.658 45.606 101.658 101.66 0 22.84-7.572 43.946-20.338 60.938 25.52 18.488 42.154 48.53 42.154 82.38 0 22.85-7.582 43.96-20.356 60.956 25.524 18.484 42.174 48.506 42.174 82.36z" />
<glyph unicode="&#xe94c;" glyph-name="badge" d="M1015.223 180.362l-141.58 141.578c-66.587-94.541-169.19-161.953-287.691-182.145l194.351-194.353c8.569-8.569 21.454-11.131 32.651-6.496 11.195 4.638 18.496 15.562 18.496 27.68v162.588h162.586c12.118 0 23.042 7.298 27.68 18.496 4.64 11.197 2.075 24.083-6.494 32.651zM546.352 645.773l-35.018 62.127-35.018-62.127c-4.276-7.586-11.641-12.937-20.176-14.659l-69.905-14.106 48.265-52.494c5.892-6.41 8.705-15.066 7.706-23.715l-8.181-70.846 64.84 29.677c7.918 3.623 17.022 3.623 24.938 0l64.84-29.675-8.183 70.844c-0.999 8.649 1.814 17.305 7.706 23.715l48.265 52.496-69.905 14.106c-8.533 1.722-15.895 7.071-20.172 14.657zM894.303 576.366c0 211.169-171.798 382.969-382.969 382.969s-382.967-171.8-382.967-382.969 171.798-382.967 382.967-382.967 382.969 171.798 382.969 382.967zM716.523 615.589l-74.962-81.536 12.707-110.025c1.24-10.742-3.406-21.32-12.154-27.676-14.739-10.702-29.751-3.152-30.081-3.002l-100.699 46.088-100.701-46.090c-9.831-4.506-21.33-3.356-30.079 3.002s-13.395 16.936-12.154 27.676l12.705 110.025-74.96 81.536c-7.32 7.962-9.779 19.251-6.44 29.536 3.342 10.285 11.968 17.973 22.569 20.112l108.571 21.905 54.385 96.486c5.311 9.422 15.286 15.25 26.1 15.25 10.816 0 20.791-5.828 26.1-15.25l54.387-96.486 108.571-21.905c10.602-2.139 19.227-9.827 22.569-20.112 3.348-10.283 0.885-21.572-6.434-29.534zM149.569 321.154l-140.793-140.793c-8.569-8.569-11.131-21.454-6.496-32.651 4.638-11.195 15.562-18.496 27.68-18.496h162.588v-162.588c0-12.118 7.298-23.042 18.496-27.68 11.195-4.636 24.083-2.073 32.651 6.496l194.163 194.163c-118.659 19.898-221.475 87.117-288.29 181.549z" />
<glyph unicode="&#xe94d;" glyph-name="drop-down-arrow" d="M0 704l512-512 512 512z" />
<glyph unicode="&#xe94e;" glyph-name="folder" d="M833.255 654.002h-369.443l-73.487 87.341c-2.472 2.972-6.177 4.638-10.039 4.518h-298.064c-45.508-0.331-82.221-37.316-82.221-82.824v-537.198c0.055-45.663 37.060-82.668 82.723-82.723h750.532c45.663 0.055 82.668 37.060 82.723 82.723v445.44c-0.055 45.663-37.060 82.668-82.723 82.723zM941.779 761.020h-369.544l-73.487 87.341c-2.472 2.972-6.177 4.638-10.039 4.518h-297.964c-41.291-0.068-76.208-30.572-81.82-71.479h271.762c14.251 0.035 27.781-6.254 36.944-17.167l62.745-74.591h352.878c65.267-0.11 118.152-52.995 118.262-118.262v-420.442c41.382 5.163 72.451 40.317 72.483 82.020v445.44c-0.108 45.43-36.794 82.291-82.221 82.623z" />
<glyph unicode="&#xe94f;" glyph-name="branch" d="M405.542 899.99h29.966v-29.966h-29.966zM465.474 899.99h29.966v-29.966h-29.966zM405.542 840.058h29.966v-29.966h-29.966zM465.474 840.058h29.966v-29.966h-29.966zM507.428 722.19h29.966v-29.966h-29.966zM567.36 722.19h29.966v-29.966h-29.966zM507.428 662.258h29.966v-29.966h-29.966zM567.36 662.258h29.966v-29.966h-29.966zM507.428 604.324h29.966v-29.966h-29.966zM567.36 604.324h29.966v-29.966h-29.966zM507.428 546.388h29.966v-29.966h-29.966zM567.36 546.388h29.966v-29.966h-29.966zM87.187 493.77l46.384 23.426 13.515-26.76-46.384-23.426zM114.232 440.254l46.384 23.426 13.515-26.76-46.384-23.426zM140.372 388.522l46.384 23.426 13.515-26.76-46.384-23.426zM1024 518.302l-165.87 83.816-103.588-215.856c-27.58 14.942-56.45 27.256-86.298 36.832v359.028h-101.884v177.8h-229.74v-542.958c-23.358-8.474-46.062-18.662-67.956-30.5l-100.56 215.734-165.894-83.83 118.716-252.032c-78.252-92.218-120.926-207.952-120.926-330.258h29.966c0 12.716 0.504 25.314 1.478 37.784l162.69-0.86 48.006 49.926 82.416-25.36 35.754 91.942-64.694 102.62-38.908 14.148v55.064l-68.448 31.316c85.5 77.558 198.908 124.876 323.162 124.876 101.042 0 194.894-31.312 272.418-84.708l-195.128-14.79-65.648-103.162 96.308-123.184 88.974-9.886 64.68-103.086 127.776 4.732 18.776 75.102 52.118 18.868c13.76-44.714 21.184-92.176 21.184-141.344h29.966c0 122.186-42.59 237.81-120.696 329.986zM226.744 242.1v-56.81l48.994-17.816 51.174-81.172-20.182-51.896-73.408 22.586-51.88-53.956-146.688 0.776c14.53 102.742 61.598 195.156 130.432 266.448zM149.792 297.708c-2.398-2.398-4.75-4.832-7.094-7.27l-100.958 214.33 112.272 56.732 88.632-190.142c-33.296-20.644-64.458-45.256-92.852-73.65zM438.504 442.348c-24.444-3.468-48.464-8.684-71.918-15.572v503.18h169.808v-147.834h-97.89zM638.28 431.712c-40.96 10.408-83.494 15.788-126.856 15.788-14.42 0-28.742-0.628-42.952-1.802v306.458h169.808zM780.532 371.156l91.384 190.422 112.296-56.746-103.732-214.736c-2.452 2.554-4.918 5.1-7.428 7.612-28.298 28.3-59.35 52.844-92.52 73.448zM961.97 105.77l-67.596-24.472-17.184-68.736-87.98-3.258-63.174 100.684-90.824 10.092-75.498 96.568 46.226 72.64 213.87 16.212c63.132-52.79 112.568-121.422 142.16-199.73zM879.683 491.067l13.515 26.76 46.384-23.426-13.515-26.76zM852.67 437.576l13.515 26.76 46.382-23.425-13.515-26.76zM826.541 385.897l13.515 26.76 46.384-23.426-13.515-26.76zM780.976 667.826v-29.968h71.488v71.49h-29.966v-19.138l-58.582 58.582-21.19-21.19 59.776-59.776zM235.876 667.826h-21.526l59.776 59.776-21.19 21.19-58.582-58.582v19.138h-29.966v-71.49h71.488zM478.66 339.614l-121.796 9.742-36.378-70.16 85.398-143.828 77.606 12.934-35.952 76.134 44.3 20.304zM407.496 239.050l31.972-67.704-18.286-3.048-66.43 111.884 19.558 37.718 77.978-6.24 6.8-48.966z" />
<glyph unicode="&#xe950;" glyph-name="conversation" d="M1020.314 156.312l-59.474 173.086c28.668 58.604 43.818 123.78 43.92 189.358 0.176 114.026-43.94 221.84-124.224 303.581-80.3 81.756-187.304 127.778-301.305 129.584-118.21 1.868-229.322-43.096-312.857-126.628-80.548-80.546-125.224-186.732-126.638-300.205-79.388-59.772-126.246-152.962-126.092-252.5 0.074-46.58 10.558-92.882 30.424-134.752l-40.966-119.216c-7.042-20.494-1.898-42.746 13.426-58.070 10.784-10.786 25.002-16.528 39.624-16.528 6.152 0 12.376 1.016 18.446 3.102l119.218 40.966c41.87-19.866 88.172-30.35 134.752-30.424 0.168 0 0.328 0 0.496 0 101.020 0.004 194.92 48.070 254.474 129.404 61.974 1.632 123.292 16.634 178.726 43.752l173.088-59.476c7.212-2.478 14.608-3.686 21.918-3.686 17.376 0 34.272 6.824 47.090 19.644 18.208 18.21 24.32 44.652 15.952 69.008zM329.061 18.618c-0.13 0-0.268 0-0.398 0-41.228 0.062-82.17 10.226-118.392 29.39-7.448 3.938-16.192 4.62-24.156 1.884l-122.246-42.006 42.006 122.244c2.736 7.966 2.056 16.71-1.884 24.156-19.164 36.224-29.328 77.164-29.392 118.394-0.102 66.318 25.696 129.176 70.81 176.244 14.736-89.832 57.55-172.612 123.914-237.796 65.874-64.702 148.678-105.898 238.022-119.366-47.176-46.498-110.768-73.144-178.284-73.144zM961.258 130.404c-1.734-1.734-3.79-2.206-6.102-1.41l-185.296 63.672c-3.218 1.106-6.566 1.654-9.902 1.654-4.918 0-9.818-1.19-14.252-3.538-52.906-27.988-112.69-42.832-172.894-42.924-0.198 0-0.378 0-0.576 0-201.726 0-368.353 163.868-371.549 365.547-1.61 101.57 37.026 197.028 108.788 268.791s167.236 110.384 268.793 108.784c201.872-3.202 365.853-170.136 365.541-372.127-0.094-60.204-14.936-119.99-42.922-172.892-3.94-7.446-4.62-16.19-1.884-24.156l63.67-185.296c0.794-2.32 0.318-4.374-1.414-6.104zM753.785 680.975h-363.121c-16.832 0-30.476-13.646-30.476-30.476 0-16.832 13.646-30.476 30.476-30.476h363.121c16.832 0 30.476 13.646 30.476 30.476s-13.644 30.476-30.476 30.476zM753.785 555.633h-363.121c-16.832 0-30.476-13.646-30.476-30.476s13.646-30.476 30.476-30.476h363.121c16.832 0 30.476 13.646 30.476 30.476s-13.644 30.476-30.476 30.476zM614.009 430.295h-223.346c-16.832 0-30.476-13.646-30.476-30.476 0-16.832 13.646-30.476 30.476-30.476h223.344c16.832 0 30.476 13.646 30.476 30.476s-13.642 30.476-30.474 30.476z" />
<glyph unicode="&#xe951;" glyph-name="list" d="M717.456 735.486h-450.584c-8.282 0-14.992-6.712-14.992-14.992s6.712-14.992 14.992-14.992h450.584c8.282 0 14.992 6.712 14.992 14.992 0.002 8.278-6.71 14.992-14.992 14.992zM732.45 611.496c0 8.28-6.712 14.992-14.992 14.992h-450.586c-8.282 0-14.992-6.712-14.992-14.992s6.712-14.992 14.992-14.992h450.584c8.282-0.002 14.994 6.712 14.994 14.992zM632.662 502.5c0 8.28-6.712 14.992-14.992 14.992h-350.798c-8.282 0-14.992-6.712-14.992-14.992s6.712-14.992 14.992-14.992h350.796c8.282-0.002 14.994 6.71 14.994 14.992zM555.54 393.5c0 8.28-6.712 14.992-14.992 14.992h-273.676c-8.282 0-14.992-6.712-14.992-14.992s6.712-14.992 14.992-14.992h273.676c8.282 0 14.992 6.714 14.992 14.992zM507.156 284.504c0 8.28-6.712 14.992-14.992 14.992h-225.292c-8.282 0-14.992-6.712-14.992-14.992s6.712-14.992 14.992-14.992h225.292c8.282 0 14.992 6.712 14.992 14.992zM478.442 190.5h-211.57c-8.282 0-14.992-6.712-14.992-14.992s6.712-14.992 14.992-14.992h211.57c8.28 0 14.992 6.712 14.992 14.992 0.002 8.28-6.71 14.992-14.992 14.992zM845.398 331.872l-84.452-76.408-27.556 25.32c-9.824 9.028-22.608 13.678-35.904 13.124-13.33-0.564-25.642-6.286-34.668-16.108-9.038-9.834-13.698-22.6-13.122-35.944 0.574-13.346 6.314-25.662 16.166-34.684l47.446-43.452c13.614-12.47 30.674-18.696 47.726-18.696 17.066 0 34.12 6.24 47.688 18.706l104.218 94.466c9.826 9.026 15.544 21.338 16.108 34.668s-4.098 26.082-13.124 35.904l-0.040 0.044c-18.634 20.278-50.292 21.612-70.486 3.060zM892.728 280.344l-104.218-94.468c-15.654-14.382-39.276-14.398-54.948-0.046l-47.446 43.452c-3.938 3.606-6.232 8.528-6.462 13.862-0.228 5.334 1.634 10.436 5.246 14.366 3.608 3.926 8.528 6.212 13.856 6.438 0.288 0.012 0.576 0.018 0.862 0.018 5.010 0 9.772-1.85 13.486-5.262l35.020-32.18c7.156-6.576 18.374-6.578 25.448-0.078l92.032 83.268c8.106 7.446 20.756 6.914 28.152-1.134l0.040-0.042c0.018-0.020 0.038-0.040 0.054-0.058 3.608-3.926 5.47-9.022 5.246-14.35-0.23-5.326-2.516-10.248-6.368-13.786zM846.526 467.622v410.932c0 44.908-36.536 81.446-81.444 81.446h-398.006c-8.282 0-14.992-6.712-14.992-14.992s6.71-14.992 14.992-14.992h398.006c28.374 0 51.46-23.084 51.46-51.46v-405.348c-8.914 1.056-17.978 1.614-27.17 1.614-126.684 0-229.75-103.064-229.75-229.75 0-126.684 103.064-229.75 229.75-229.75 9.114 0 18.178 0.59 27.158 1.662-0.25-28.164-23.23-50.998-51.448-50.998-10.16 0-20.318 0-30.478 0-26.634 0-583.372-0.040-584.976 0.068 10.738 15.206 18.158 32.474 18.158 51.402 0 0.010 0 861.092 0 861.13-0.004 12.29-3.060 25.27-8.588 36.29-2.182 4.35-4.73 8.528-7.65 12.424-0.69 0.92-1.398 1.828-2.126 2.718h148.22c8.28 0 14.992 6.712 14.992 14.992s-6.712 14.992-14.992 14.992c0 0-211.27 0-211.31 0-44.912-0.002-81.452-36.542-81.452-81.456v-92.284c0-21.972 17.876-39.848 39.848-39.848h93.076v-596.83h-93.078c-21.972 0-39.848-17.874-39.848-39.846v-92.284c0.002-44.914 36.542-81.454 81.454-81.454h678.748c44.91 0 81.446 36.536 81.446 81.446v5.15c33.066 8.5 64.094 24.27 90.524 46.468 6.34 5.326 7.164 14.782 1.838 21.124-5.324 6.338-14.782 7.162-21.122 1.838-35.872-30.128-81.47-46.72-128.396-46.72-110.152 0-199.764 89.614-199.764 199.764 0 110.152 89.612 199.766 199.764 199.766s199.764-89.614 199.764-199.766c0-36.464-9.914-72.142-28.668-103.174-4.284-7.086-2.010-16.304 5.076-20.586 7.088-4.282 16.304-2.010 20.588 5.076 21.584 35.712 32.992 76.752 32.992 118.684-0.002 106.96-73.472 197.082-172.596 222.552zM137.802 17.454c0-20.398-11.928-38.064-29.176-46.386-3-1.448-6.16-2.612-9.446-3.46-4.108-1.060-8.414-1.624-12.848-1.624-28.38 0-51.468 23.088-51.468 51.47v92.284c0 5.438 4.424 9.862 9.862 9.862h93.076zM137.802 776.4h-93.076c-5.438 0-9.862 4.424-9.862 9.862v92.284c0 28.376 23.080 51.462 51.456 51.468h0.012c28.38 0 51.47-23.088 51.47-51.468z" />
<glyph unicode="&#xe952;" glyph-name="find" d="M976 864h-189.92l-54.4 58.88c-2.905 3.152-7.053 5.12-11.661 5.12-0.007 0-0.013 0-0.020 0h-479.999c-8.837 0-16-7.163-16-16v0-236c-112.163-35.253-192.1-138.292-192.1-260s79.937-224.747 190.173-259.476l1.927-0.524v-108c0-8.837 7.163-16 16-16v0h144v-48c0-8.837 7.163-16 16-16v0h576c8.837 0 16 7.163 16 16v0 864c0 8.837-7.163 16-16 16v0zM736 871.040l139.52-151.040h-139.52zM64 416c0 132.548 107.452 240 240 240s240-107.452 240-240c0-132.548-107.452-240-240-240v0c-132.482 0.164-239.836 107.517-240 239.984v0.016zM256 64v84.48c14.372-2.74 30.958-4.365 47.902-4.479l0.098-0.001c0.058 0 0.127 0 0.196 0 46.43 0 90.12 11.729 128.27 32.386l-1.426-0.706 111.84-111.68zM416 0v32h158.88l32.16-32zM697.92 22.080c-8.748-8.465-20.685-13.683-33.84-13.683s-25.092 5.217-33.853 13.695l-171.027 170.867c26.629 18.725 49.115 41.211 67.262 66.975l0.578 0.865 170.88-171.040c8.79-8.6 14.24-20.584 14.24-33.84s-5.45-25.24-14.232-33.832l-0.009-0.008zM544.32 288.96c19.953 36.881 31.681 80.735 31.681 127.328 0 150.062-121.65 271.712-271.712 271.712-0.102 0-0.203 0-0.305 0h0.016c-17.042-0.115-33.628-1.74-49.726-4.748l1.726 0.268v212.48h448v-192c0-8.837 7.163-16 16-16v0h176v-624h-152.64c-1.896 19.037-10.215 35.84-22.727 48.487l0.007-0.007zM960 0h-238.88c8.506 8.742 15.007 19.48 18.73 31.442l0.15 0.558h172c8.837 0 16 7.163 16 16v0 656c0 0.027 0 0.059 0 0.091 0 4.187-1.646 7.989-4.326 10.795l0.006-0.006-108 117.12h144.32zM320 848h96v-32h-96zM464 848h192v-32h-192zM320 768h336v-32h-336zM576 640h288v-32h-288zM576 560h288v-32h-288zM608 480h256v-32h-256zM608 400h64v-32h-64zM704 400h160v-32h-160zM512 416c0 114.875-93.125 208-208 208s-208-93.125-208-208c0-114.875 93.125-208 208-208v0c114.82 0.137 207.863 93.18 208 207.987v0.013zM128 416c0 97.202 78.798 176 176 176s176-78.798 176-176c0-97.202-78.798-176-176-176v0c-97.155 0.118-175.882 78.845-176 175.989v0.011z" />
<glyph unicode="&#xe953;" glyph-name="payment" d="M631.971 759.982c-11.028 0-20 8.972-20 20s8.972 20 20 20c7.084 0 14.566-3.614 21.63-10.454 7.938-7.682 20.598-7.474 28.278 0.466 7.68 7.938 7.472 20.598-0.466 28.278-10.15 9.822-20.306 15.376-29.446 18.41v23.296c0 11.046-8.954 19.998-20 19.998s-20-8.954-20-19.998v-23.438c-23.276-8.256-39.998-30.484-39.998-56.558 0-33.082 26.914-59.996 59.996-59.996 11.028 0 20-8.972 20-20s-8.972-20-20-20c-8.544 0-17.768 5.374-25.97 15.13-7.108 8.456-19.72 9.548-28.176 2.438-8.456-7.108-9.546-19.724-2.438-28.176 10.692-12.718 23.262-21.578 36.586-26.046v-23.34c0-11.046 8.954-19.998 20-19.998s19.998 8.954 19.998 19.998v23.438c23.276 8.256 39.998 30.484 39.998 56.558 0.004 33.080-26.91 59.994-59.992 59.994zM631.971 959.972c-121.302 0-219.988-98.688-219.988-219.988s98.688-219.988 219.988-219.988c121.302 0 219.988 98.688 219.988 219.988s-98.686 219.988-219.988 219.988zM631.971 559.995c-99.246 0-179.99 80.744-179.99 179.99s80.744 179.99 179.99 179.99 179.99-80.744 179.99-179.99-80.744-179.99-179.99-179.99zM948.344 514.541c-30.624 1.188-59.248-15.77-72.954-43.176-24.952-49.89-48.586-75.552-94.072-99.084-13.366 26.084-40.624 43.72-71.254 43.72h-200.39c-12.776 0-23.098 5.44-37.388 12.968-22.858 12.044-51.306 27.030-102.604 27.030-91.64 0-180.67-89.924-217.636-152.92l-4.77 4.77c-7.808 7.806-20.474 7.808-28.284 0l-113.136-113.134c-3.752-3.752-5.86-8.844-5.858-14.152s2.116-10.398 5.874-14.148l225.048-224.548c7.794-7.778 20.422-7.796 28.234-0.016l113.134 112.634c7.836 7.802 7.852 20.492 0.032 28.314l-18.316 18.316c13.698 19.374 48.606 34.9 73.332 34.9 0.010 0 0.022 0 0.032 0l269.957-0.080c0.040 0 0.080 0 0.122 0 34.904 0 68.384 9.674 96.826 27.976 72.952 46.912 175.558 123.258 224.13 244.138 20.218 50.326-16.928 104.412-70.060 106.492zM245.068-15.74l-196.766 196.328 84.836 84.836c47.288-47.288 97.22-97.23 196.736-196.736l-84.806-84.428zM981.294 422.957c-44.312-110.27-140.3-181.452-208.656-225.406-21.976-14.144-47.974-21.616-75.192-21.616-0.032 0-0.064 0-0.096 0l-269.959 0.080c-0.018 0-0.036 0-0.056 0-34.932 0-78.198-18.132-101.766-46.458l-144.070 144.068c15.866 32.616 98.796 142.376 188.184 142.376 41.408 0 63.040-11.398 83.962-22.418 16.404-8.642 33.364-17.58 56.032-17.58h200.39c19.844 0 36.862-14.77 39.608-34.49 3.43-23.432-14.97-45.506-39.608-45.506h-200.392c-11.046 0-20-8.954-20-19.998 0-11.046 8.954-20 20-20h200.39c42.73 0 77.742 33.676 79.892 75.882 59.286 28.724 90.786 60.76 121.208 121.584 6.696 13.394 20.672 21.67 35.626 21.098 26.318-1.030 44.126-27.66 34.504-51.616zM246.27 95.746l-28.298 28.278c-7.812 7.806-20.474 7.8-28.284-0.010-7.808-7.814-7.802-20.474 0.010-28.284l28.298-28.278c7.81-7.806 20.47-7.804 28.284 0.010 7.808 7.814 7.802 20.476-0.010 28.284z" />
<glyph unicode="&#xe954;" glyph-name="user" d="M512.071 960c-146.287 0-265.869-119.582-265.869-265.869s119.582-265.869 265.869-265.869 265.869 119.582 265.869 265.869-119.582 265.869-265.869 265.869zM968.344 215.8c-6.967 17.416-16.253 33.669-26.702 48.762-53.407 78.949-135.836 131.193-228.716 143.964-11.609 1.16-24.38-1.16-33.669-8.127-48.762-35.991-106.811-54.567-167.184-54.567s-118.422 18.576-167.184 54.567c-9.289 6.967-22.060 10.449-33.669 8.127-92.88-12.771-176.471-65.016-228.716-143.964-10.449-15.093-19.738-32.509-26.702-48.762-3.482-6.967-2.322-15.093 1.16-22.060 9.289-16.253 20.898-32.509 31.347-46.44 16.253-22.060 33.669-41.796 53.407-60.371 16.253-16.253 34.829-31.347 53.407-46.44 91.718-68.5 202.013-104.489 315.791-104.489s224.073 35.991 315.791 104.489c18.576 13.931 37.151 30.187 53.407 46.44 18.576 18.576 37.151 38.313 53.407 60.371 11.609 15.093 22.060 30.187 31.347 46.44 5.802 6.967 6.962 15.096 3.48 22.060z" />
<glyph unicode="&#xe955;" glyph-name="bubble-chat" d="M606.784 837.214c-63.59 39.22-138.944 60.786-216.784 60.786-211.892 0-390-157.866-390-360 0-70.87 22.016-138.808 63.836-197.482l-58.42-183.412c-6.172-19.374 8.34-39.106 28.59-39.106 4.63 0 9.29 1.070 13.59 3.258l177.664 90.334c7.194-3.098 14.478-5.98 21.836-8.656-41.134 64.204-63.096 137.904-63.096 215.064 0 229.794 193.356 406.456 422.784 419.214zM960.164 220.518c41.82 58.674 63.836 126.612 63.836 197.482 0 202.208-178.184 360-390 360-211.892 0-390-157.866-390-360 0-202.208 178.184-360 390-360 56.834 0 113.464 11.582 164.73 33.596l177.674-90.338c10.782-5.482 23.806-3.952 33.024 3.882s12.83 20.438 9.158 31.964zM512 388c-16.568 0-30 13.432-30 30s13.432 30 30 30 30-13.432 30-30-13.432-30-30-30zM632 388c-16.568 0-30 13.432-30 30s13.432 30 30 30 30-13.432 30-30-13.432-30-30-30zM752 388c-16.568 0-30 13.432-30 30s13.432 30 30 30 30-13.432 30-30-13.432-30-30-30z" />
<glyph unicode="&#xe956;" glyph-name="vision" d="M804 328c11.039 0 20 8.961 20 20s-8.961 20-20 20-20-8.961-20-20 8.961-20 20-20zM220 328c11.039 0 20 8.961 20 20s-8.961 20-20 20-20-8.961-20-20 8.961-20 20-20zM308.008 336.82c-8.578 6.953-21.172 5.633-28.125-2.953-6.953-8.578-5.633-21.172 2.945-28.125 23.625-19.141 37.172-47.477 37.172-77.742 0-55.141-44.859-100-100-100-11.047 0-20-8.953-20-20s8.953-20 20-20c77.195 0 140 62.805 140 140 0 42.391-18.953 82.055-51.992 108.82zM989.953 345.594c-192.32 423.797-183.492 404.969-185 407.32-14.43 22.398-36.117 39.375-60.953 48.195v6.891c0 44.109-35.891 80-80 80s-80-35.891-80-80v-160h-144c0 18.648 0 135.672 0 160 0 44.109-35.891 80-80 80s-80-35.891-80-80v-6.891c-24.852-8.828-46.523-25.805-60.953-48.195-1.5-2.328 7.375 16.586-185.008-407.328-22.359-35.375-34.039-75.68-34.039-117.586 0-121.305 98.695-220 220-220s220 98.695 220 220v60h144v-60c0-121.305 98.695-220 220-220s220 98.695 220 220c0 41.836-11.648 82.172-34.047 117.594zM624 528c0 66.172 53.828 120 120 120 28.68 0 56.18-10.195 77.898-28.75l90.625-199.781c-32.531 18.438-69.727 28.531-108.523 28.531-74.328 0-140.148-37.055-180-93.656zM770.563 732.406l23.836-52.531c-16.102 5.336-33.086 8.125-50.398 8.125-47.758 0-90.656-21.055-120-54.336 0 31.078 0 23.859 0 54.336 0 44.109 35.891 80 80 80 27.008 0 51.875-13.648 66.563-35.594zM664 848c22.055 0 40-17.945 40-40-30.711 0-58.75-11.609-80-30.656v30.656c0 22.055 17.945 40 40 40zM584 608v-200h-144v200zM202.102 619.25c21.719 18.555 49.219 28.75 77.898 28.75 66.172 0 120-53.828 120-120v-173.656c-39.852 56.602-105.672 93.656-180 93.656-38.797 0-75.992-10.094-108.523-28.539zM360 848c22.055 0 40-17.945 40-40v-30.656c-21.25 19.047-49.289 30.656-80 30.656 0 22.055 17.945 40 40 40zM253.438 732.406c14.68 21.938 39.539 35.594 66.563 35.594 44.109 0 80-35.891 80-80v-54.336c-29.344 33.281-72.242 54.336-120 54.336-17.305 0-34.297-2.789-50.398-8.125zM220 48c-99.25 0-180 80.75-180 180 0 34.727 9.789 68.102 28.492 97.234 0.008 0.016 0.016 0.031 0.023 0.047 0.008 0.008 0.016 0.016 0.016 0.023 33.359 51.781 89.984 82.695 151.469 82.695 99.25 0 180-80.75 180-180s-80.75-180-180-180zM440 328v40h144v-40zM804 48c-99.25 0-180 80.75-180 180s80.75 180 180 180c61.484 0 118.102-30.906 151.461-82.688 0.008-0.016 0.016-0.031 0.031-0.039 0-0.008 0.008-0.016 0.016-0.031 18.68-29.117 28.492-62.484 28.492-97.242 0-99.25-80.75-180-180-180zM892.039 336.914c-8.578 6.961-21.18 5.641-28.133-2.938s-5.641-21.172 2.938-28.133c22.695-18.398 37.156-46.344 37.156-77.844 0-55.141-44.859-100-100-100-11.047 0-20-8.953-20-20s8.953-20 20-20c77.195 0 140 62.805 140 140 0 43.656-19.984 82.977-51.961 108.914z" />
<glyph unicode="&#xe957;" glyph-name="support-1" d="M882.075 536.713h-2.535v62.099c0 199.478-161.707 361.188-361.188 361.188s-361.188-161.71-361.188-361.188v-62.099h-15.207c-55.763 0-98.851-49.424-98.851-106.456v-158.415c-1.405-55.275 42.269-101.224 97.544-102.628 0.437-0.012 0.871-0.019 1.307-0.024h93.782c13.283 0.623 23.547 11.901 22.921 25.184-0.022 0.478-0.058 0.956-0.109 1.431v310.495c0 15.207-8.871 30.416-22.812 30.416h-27.881v62.099c0 171.481 139.014 310.495 310.495 310.495s310.495-139.014 310.495-310.495v-62.099h-27.881c-13.941 0-22.812-15.207-22.812-30.416v-310.495c-1.414-13.223 8.158-25.089 21.38-26.504 0.475-0.051 0.953-0.087 1.431-0.109h29.148l-2.535-3.801c-38.028-50.54-97.702-80.142-160.95-79.841-13.846 67.894-80.113 111.71-148.007 97.862-58.060-11.84-99.921-62.688-100.389-121.942 0.694-69.497 57.233-125.469 126.733-125.464 34.404 0.558 67.198 14.676 91.247 39.287 16.226 16.616 26.858 37.883 30.416 60.833 79.205-0.301 153.901 36.813 201.504 100.118l24.080 35.486c54.494 3.801 88.712 38.019 88.712 87.446v158.415c0.002 54.489-40.551 119.123-98.849 119.123zM207.857 219.882h-65.9c-27.29 0.665-48.874 23.324-48.209 50.613 0.012 0.449 0.029 0.898 0.051 1.349v158.415c0 29.148 20.277 55.763 48.158 55.763h65.9v-266.14zM599.461 10.773c-14.045-15.229-33.778-23.949-54.494-24.080-41.233 0.655-74.693 33.558-76.040 74.773-0.017 41.296 33.446 74.786 74.742 74.803s74.786-33.446 74.803-74.742c0-0.019 0-0.041 0-0.061 1.055-18.816-5.844-37.211-19.011-50.693zM930.233 259.169c0-34.218-32.951-39.287-48.158-39.287h-53.228v266.138h53.228c27.881 0 48.158-39.287 48.158-68.435v-158.415z" />
<glyph unicode="&#xe958;" glyph-name="light-bulb" d="M614.556 124.917h-200.873c-29.321 0-53.164 23.844-53.164 53.166v67.559c-87.295 53.065-141.196 148.308-141.196 250.498 0 161.666 131.511 293.178 293.176 293.178s293.178-131.511 293.178-293.178c0-100.553-52.698-195.028-138.023-248.46v-69.596c0.034-29.321-23.81-53.166-53.099-53.166zM512.535 762.067c-146.638 0-265.927-119.287-265.927-265.927 0-95.076 51.462-183.541 134.315-230.863 4.242-2.439 6.879-6.947 6.879-11.856v-75.373c0-14.259 11.622-25.881 25.881-25.881h200.873c14.259 0 25.881 11.622 25.881 25.881v77.276c0 4.842 2.538 9.284 6.713 11.755 80.984 47.723 131.31 135.485 131.31 229.057 0 146.642-119.287 265.931-265.925 265.931zM727.266 482.514c-7.547 0-13.626 6.111-13.626 13.626 0 110.873-90.201 201.107-201.107 201.107-7.547 0-13.626 6.111-13.626 13.626s6.111 13.626 13.626 13.626c125.934 0 228.39-102.456 228.39-228.39 0.002-7.483-6.111-13.594-13.658-13.594zM512.535-64c-66.156 0-119.99 53.834-119.99 119.99 0 7.547 6.111 13.626 13.626 13.626 7.513 0 13.626-6.111 13.626-13.626 0-51.129 41.61-92.705 92.705-92.705s92.705 41.576 92.705 92.705c0 7.547 6.111 13.626 13.626 13.626s13.626-6.111 13.626-13.626c0.066-66.156-53.768-119.99-119.923-119.99zM618.898 42.331c-7.547 0-13.626 6.111-13.626 13.626v68.961h-185.444v-68.961c0-7.547-6.111-13.626-13.626-13.626-7.513 0-13.626 6.111-13.626 13.626v82.586c0 7.547 6.111 13.626 13.626 13.626h212.695c7.547 0 13.626-6.111 13.626-13.626v-82.586c0-7.515-6.111-13.626-13.626-13.626zM618.898 42.331h-212.693c-7.547 0-13.626 6.111-13.626 13.626s6.111 13.626 13.626 13.626h212.695c7.547 0 13.626-6.111 13.626-13.626-0.002-7.515-6.113-13.626-13.628-13.626zM512.535 852.1c-7.547 0-13.626 6.111-13.626 13.626v80.648c0 7.547 6.111 13.626 13.626 13.626s13.626-6.111 13.626-13.626v-80.65c-0.002-7.513-6.079-13.624-13.626-13.624zM251.116 744.266c-3.473 0-6.979 1.337-9.652 4.008l-57.039 57.039c-5.31 5.31-5.31 13.959 0 19.27 5.31 5.344 13.959 5.344 19.27 0l57.039-57.039c5.31-5.31 5.31-13.959 0-19.27-2.639-2.671-6.113-4.008-9.618-4.008zM142.514 483.181h-80.65c-7.547 0-13.626 6.111-13.626 13.626 0 7.547 6.111 13.626 13.626 13.626h80.65c7.547 0 13.626-6.111 13.626-13.626 0.034-7.547-6.077-13.626-13.626-13.626zM962.134 482.079h-80.65c-7.547 0-13.626 6.111-13.626 13.626 0 7.513 6.111 13.626 13.626 13.626h80.65c7.547 0 13.626-6.111 13.626-13.626 0-7.513-6.111-13.626-13.626-13.626zM773.618 743.498c-3.473 0-6.979 1.337-9.652 4.008-5.31 5.31-5.31 13.959 0 19.27l57.039 57.039c5.31 5.342 13.959 5.342 19.27 0 5.31-5.31 5.31-13.959 0-19.27l-57.039-57.039c-2.637-2.671-6.111-4.008-9.618-4.008z" />
<glyph unicode="&#xe959;" glyph-name="group" d="M885.616 487.003c29.987 21.072 49.843 56.123 49.843 95.633 0 64.633-52.274 116.907-116.907 116.907s-116.907-52.274-116.907-116.907c0-39.509 19.653-74.561 49.843-95.633-25.732-8.915-49.235-22.693-69.091-40.522-27.353 23.3-59.568 41.13-94.822 51.666 42.751 25.934 71.522 73.143 71.522 126.835 0 81.855-66.254 148.109-148.109 148.109s-148.109-66.457-148.109-148.109c0-53.692 28.568-100.901 71.522-126.835-34.849-10.536-66.659-28.163-93.809-51.058-19.856 17.425-42.954 31-68.28 39.712 29.987 21.072 49.843 56.123 49.843 95.633 0 64.633-52.274 116.907-116.907 116.907s-116.907-52.274-116.907-116.907c0-39.509 19.653-74.561 49.843-95.633-80.437-27.758-138.181-104.142-138.181-193.899v-13.372c0-0.405 0.405-0.81 0.81-0.81h247.794c-1.418-11.144-2.229-22.693-2.229-34.241v-13.778c0-59.568 48.222-107.789 107.789-107.789h314.048c59.568 0 107.789 48.222 107.789 107.789v13.778c0 11.549-0.81 23.098-2.229 34.241h249.415c0.405 0 0.81 0.405 0.81 0.81v13.372c-0.405 89.96-57.947 166.344-138.384 194.102zM734.063 582.838c0 46.601 37.888 84.489 84.489 84.489s84.489-37.888 84.489-84.489c0-45.993-37.078-83.476-82.868-84.489-0.608 0-1.013 0-1.621 0s-1.013 0-1.621 0c-45.993 0.81-82.868 38.294-82.868 84.489zM394.89 624.981c0 63.823 51.869 115.691 115.691 115.691s115.691-51.869 115.691-115.691c0-61.594-48.424-112.044-109.005-115.489-2.229 0-4.457 0-6.686 0s-4.457 0-6.686 0c-60.581 3.444-109.005 53.895-109.005 115.489zM120.149 582.838c0 46.601 37.888 84.489 84.489 84.489s84.489-37.888 84.489-84.489c0-45.993-37.078-83.476-82.868-84.489-0.608 0-1.013 0-1.621 0s-1.013 0-1.621 0c-45.79 0.81-82.868 38.294-82.868 84.489zM254.278 311.338h-221.455c9.118 86.313 82.058 153.985 170.599 154.593 0.405 0 0.81 0 1.216 0s0.81 0 1.216 0c42.143-0.203 80.639-15.804 110.423-41.13-29.176-31.607-50.856-70.509-61.999-113.463zM743.18 230.699c0-41.535-33.836-75.372-75.372-75.372h-314.048c-41.535 0-75.372 33.836-75.372 75.372v13.778c0 125.822 100.495 228.749 225.507 232.396 2.229-0.203 4.66-0.203 6.889-0.203s4.66 0 6.889 0.203c125.011-3.647 225.507-106.574 225.507-232.396v-13.778zM767.291 311.338c-11.144 42.751-32.418 81.045-61.391 112.652 29.987 25.934 68.888 41.535 111.436 41.941 0.405 0 0.81 0 1.216 0s0.81 0 1.216 0c88.541-0.608 161.482-68.28 170.599-154.593h-223.076z" />
<glyph unicode="&#xe95a;" glyph-name="quote-1" d="M268.8 38.397h-127.997c-77.672 0-140.803 63.131-140.803 140.803v127.997c0 77.672 63.131 140.803 140.803 140.803h127.997c77.672 0 140.803-63.131 140.803-140.803v-127.997c0-77.672-63.131-140.803-140.803-140.803zM140.803 371.2c-35.278 0-64.003-28.725-64.003-64.003v-127.997c0-35.278 28.725-64.003 64.003-64.003h127.997c35.278 0 64.003 28.725 64.003 64.003v127.997c0 35.278-28.725 64.003-64.003 64.003zM38.4 268.797c-21.197 0-38.4 17.203-38.4 38.4v256.003c0 162.3 132.047 294.403 294.403 294.403h76.8c21.197 0 38.4-17.203 38.4-38.4s-17.203-38.4-38.4-38.4h-76.8c-120.019 0-217.603-97.641-217.603-217.603v-256.003c0-21.197-17.203-38.4-38.4-38.4zM883.2 38.397h-127.997c-77.672 0-140.803 63.131-140.803 140.803v127.997c0 77.672 63.131 140.803 140.803 140.803h127.997c77.672 0 140.803-63.131 140.803-140.803v-127.997c0-77.672-63.131-140.803-140.803-140.803zM755.203 371.2c-35.278 0-64.003-28.725-64.003-64.003v-127.997c0-35.278 28.725-64.003 64.003-64.003h127.997c35.278 0 64.003 28.725 64.003 64.003v127.997c0 35.278-28.725 64.003-64.003 64.003zM652.8 268.797c-21.197 0-38.4 17.203-38.4 38.4v256.003c0 162.3 132.047 294.403 294.403 294.403h76.8c21.197 0 38.4-17.203 38.4-38.4s-17.203-38.4-38.4-38.4h-76.8c-120.019 0-217.603-97.641-217.603-217.603v-256.003c0-21.197-17.203-38.4-38.4-38.4z" />
</font>
</defs>
</svg>
